<?xml version="1.0" encoding="UTF-8"?>
<!DOCTYPE svg PUBLIC "-//W3C//DTD SVG 1.1//EN" "http://www.w3.org/Graphics/SVG/1.1/DTD/svg11.dtd">
<!-- Creator: CorelDRAW X6 -->
<svg xmlns="http://www.w3.org/2000/svg" xml:space="preserve" width="19.4444in" height="13.6111in" version="1.1" style="shape-rendering:geometricPrecision; text-rendering:geometricPrecision; image-rendering:optimizeQuality; fill-rule:evenodd; clip-rule:evenodd"
viewBox="0 0 19444 13611"
 xmlns:xlink="http://www.w3.org/1999/xlink">
 <defs>
  <style type="text/css">
   <![CDATA[
    .fil1 {fill:#D2DEC8;fill-rule:nonzero}
    .fil2 {fill:#EFC1C6;fill-rule:nonzero}
    .fil3 {fill:#F1BD87;fill-rule:nonzero}
    .fil0 {fill:#F4EDDE;fill-rule:nonzero}
   ]]>
  </style>
   <pattern id="id0" patternUnits="userSpaceOnUse" patternTransform="matrix(1 0 0 1 -0.0019685 -6.55512)" x="0" y="0" width="11940" height="9643" viewBox="9722 -2830 11933 9636">
     <clipPath id="id1" style="clip-rule:nonzero">
      <path d="M9722 6806l11933 0 0 -9636 -11933 0 0 9636z"/>
     </clipPath>
    <g style="clip-path:url(#id1)">
     <path id="1" class="fil1" d="M11281 6925c121,-52 252,-90 385,-79 45,4 44,-66 0,-69 -145,-12 -288,31 -420,88 -41,18 -6,78 35,60l0 0z"/>
     <path id="2" class="fil1" d="M20833 5800c1,-174 37,-351 135,-498 110,-166 299,-221 489,-186 136,25 203,136 198,271 -6,152 -127,214 -263,172 -43,-13 -61,54 -18,67 160,50 309,-16 345,-186 29,-139 -30,-315 -169,-370 -201,-80 -442,-26 -588,131 -147,158 -195,391 -197,600 0,45 69,45 69,0l0 0z"/>
     <path id="3" class="fil1" d="M20400 5597c72,22 157,28 231,29 45,1 45,-69 0,-69 -69,-1 -147,-6 -213,-27 -43,-13 -61,54 -18,67l0 0z"/>
     <path id="4" class="fil1" d="M21376 4656c19,46 -4,125 -24,168 -19,40 41,76 60,35 18,-38 28,-79 34,-121 4,-31 10,-70 -2,-100 -17,-41 -84,-23 -67,18l0 0z"/>
     <path id="5" class="fil1" d="M20539 5167c53,13 111,23 158,52 38,24 73,-36 35,-60 -53,-33 -116,-44 -175,-59 -43,-11 -62,56 -18,67l0 0z"/>
     <path id="6" class="fil1" d="M20882 4710c-14,-2 3,8 8,14 11,13 21,28 30,42 20,31 38,62 57,94 23,38 83,3 60,-35 -25,-42 -49,-84 -78,-124 -20,-28 -41,-55 -77,-60 -44,-6 -44,64 0,69l0 0z"/>
     <path id="7" class="fil1" d="M21122 3941c136,-80 325,-159 479,-83 40,20 75,-40 35,-60 -179,-88 -389,-11 -549,83 -39,23 -4,83 35,60l0 0z"/>
     <path id="8" class="fil1" d="M21583 5939c8,262 384,551 601,316 30,-33 -19,-82 -49,-49 -173,187 -476,-64 -482,-267 -1,-45 -71,-45 -69,0l0 0z"/>
     <path id="9" class="fil2" d="M20023 5081c84,-151 190,-292 354,-359 41,-17 23,-84 -18,-67 -183,75 -302,222 -396,391 -22,39 38,74 60,35l0 0z"/>
     <path id="10" class="fil2" d="M20667 3786c0,145 5,289 57,426 16,42 83,24 67,-18 -49,-132 -54,-269 -54,-407 0,-45 -69,-45 -69,0l0 0z"/>
     <path id="11" class="fil2" d="M20444 3855c12,124 2,251 43,370 14,42 81,24 67,-18 -39,-114 -29,-234 -40,-352 -4,-44 -74,-45 -69,0l0 0z"/>
     <path id="12" class="fil2" d="M20207 4193c-55,-186 -77,-396 33,-567 107,-166 319,-216 503,-223 45,-2 45,-71 0,-69 -212,8 -425,68 -556,246 -132,181 -107,429 -47,631 13,43 80,25 67,-18l0 0z"/>
     <path id="13" class="fil2" d="M21028 3647c27,-219 71,-419 -1,-634 -14,-42 -81,-24 -67,18 70,209 25,404 -1,616 -5,44 64,44 69,0l0 0z"/>
     <path id="14" class="fil2" d="M21208 4133c-3,134 86,248 227,234 153,-15 226,-165 217,-304 -3,-44 -72,-45 -69,0 7,106 -34,211 -147,234 -104,21 -161,-74 -159,-165 1,-45 -68,-45 -69,0l0 0z"/>
     <path id="15" class="fil2" d="M21139 5814c2,273 69,561 246,775 29,34 78,-15 49,-49 -165,-198 -224,-473 -226,-725 0,-45 -70,-45 -69,0l0 0z"/>
     <path id="16" class="fil2" d="M21437 6112c45,0 45,-69 0,-69 -45,0 -45,69 0,69l0 0z"/>
     <path id="17" class="fil2" d="M21507 6335c45,0 45,-69 0,-69 -45,0 -45,69 0,69l0 0z"/>
     <path id="18" class="fil2" d="M21007 6154c45,0 45,-69 0,-69 -45,0 -45,69 0,69l0 0z"/>
     <path id="19" class="fil2" d="M21062 6404c45,0 45,-69 0,-69 -45,0 -45,69 0,69l0 0z"/>
     <path id="20" class="fil2" d="M21264 3550c0,5 0,9 0,14 0,19 16,35 35,35 19,0 35,-16 35,-35 0,-5 0,-9 0,-14 0,-19 -16,-35 -35,-35 -19,0 -35,16 -35,35l0 0z"/>
     <path id="21" class="fil2" d="M21510 3498c-5,5 -9,9 -14,14 -13,13 -13,36 0,49 13,13 36,13 49,0 5,-5 9,-9 14,-14 13,-13 13,-36 0,-49 -13,-13 -36,-13 -49,0l0 0z"/>
     <path id="22" class="fil2" d="M20118 4598c45,0 45,-69 0,-69 -45,0 -45,69 0,69l0 0z"/>
     <path id="23" class="fil2" d="M19868 4793c9,0 19,0 28,0 19,0 35,-16 35,-35 0,-19 -16,-35 -35,-35 -9,0 -19,0 -28,0 -19,0 -35,16 -35,35 0,19 16,35 35,35l0 0z"/>
     <path id="24" class="fil2" d="M21363 3222c170,-66 357,-40 528,-97 42,-14 24,-81 -18,-67 -171,58 -358,31 -528,97 -41,16 -23,83 18,67l0 0z"/>
     <path id="25" class="fil2" d="M21435 2602c-46,87 -119,326 52,326 75,0 144,-53 179,-115 45,-79 52,-180 156,-202 -14,-8 -28,-16 -43,-24 20,92 12,281 154,263 118,-16 161,-188 164,-286 1,-45 -68,-45 -69,0 -2,62 -28,207 -106,218 -67,9 -66,-170 -75,-213 -4,-19 -25,-28 -43,-24 -137,29 -146,156 -211,256 -28,43 -135,96 -144,16 -7,-61 19,-127 47,-179 21,-40 -39,-75 -60,-35l0 0z"/>
     <path id="26" class="fil2" d="M21265 5249c-13,65 -29,129 -42,194 -9,44 58,62 67,18 13,-65 29,-129 42,-194 9,-44 -58,-62 -67,-18l0 0z"/>
     <path id="27" class="fil3" d="M20487 5943c-58,209 34,471 189,617 33,31 82,-18 49,-49 -138,-130 -224,-363 -172,-550 12,-43 -55,-62 -67,-18l0 0z"/>
     <path id="28" class="fil3" d="M20222 5883c-14,130 4,260 43,384 14,43 81,24 67,-18 -38,-119 -54,-242 -40,-366 5,-45 -65,-44 -69,0l0 0z"/>
     <path id="29" class="fil3" d="M19821 3749c-43,175 -65,351 31,513 23,38 83,4 60,-35 -87,-146 -63,-303 -24,-459 11,-43 -56,-62 -67,-18l0 0z"/>
     <path id="30" class="fil3" d="M20073 3373c-100,-125 -104,-300 65,-364 57,-21 121,-20 172,15 69,46 71,148 64,221 -4,45 65,44 69,0 9,-99 -6,-212 -92,-276 -70,-51 -162,-53 -241,-24 -81,30 -144,93 -172,175 -37,108 18,219 85,302 28,35 77,-15 49,-49l0 0z"/>
     <path id="31" class="fil3" d="M20729 2668c45,0 45,-69 0,-69 -45,0 -45,69 0,69l0 0z"/>
     <path id="32" class="fil3" d="M20743 2946c45,0 45,-69 0,-69 -45,0 -45,69 0,69l0 0z"/>
     <path id="33" class="fil3" d="M21208 2647c22,-191 106,-367 304,-420 178,-47 376,13 541,78 42,16 60,-51 18,-67 -192,-75 -416,-134 -618,-66 -207,69 -291,274 -315,475 -5,44 64,44 69,0l0 0z"/>
     <path id="34" class="fil3" d="M19682 5124c-41,129 19,255 135,319 120,66 253,22 331,-83 27,-36 -34,-71 -60,-35 -131,178 -403,21 -339,-182 14,-43 -54,-61 -67,-18l0 0z"/>
     <path id="35" class="fil3" d="M19477 4880c-112,199 -142,434 -35,641 103,199 321,297 537,300 45,1 45,-69 0,-69 -198,-3 -379,-90 -477,-266 -100,-180 -62,-399 35,-571 22,-39 -38,-74 -60,-35l0 0z"/>
     <path id="36" class="fil3" d="M21437 4043c5,0 9,0 14,0 19,0 35,-16 35,-35 0,-19 -16,-35 -35,-35 -5,0 -9,0 -14,0 -19,0 -35,16 -35,35 0,19 16,35 35,35l0 0z"/>
     <path id="37" class="fil1" d="M19555 3842c-13,200 113,389 96,592 -4,46 -35,76 -77,94 -45,19 -73,-24 -91,-59 -41,-78 -57,-177 -71,-264 -15,-86 -33,-213 -111,-267 -84,-58 -151,101 -170,152 -37,98 -13,223 7,322 22,110 56,227 116,323 24,38 84,3 60,-35 -58,-91 -87,-201 -109,-306 -27,-125 -35,-246 29,-361 41,-72 65,12 79,56 18,55 26,112 39,169 19,84 34,168 72,247 78,164 276,89 297,-70 26,-202 -109,-392 -96,-592 3,-45 -67,-44 -69,0l0 0z"/>
     <path id="38" class="fil1" d="M19358 3649c118,-58 243,-101 346,-186 80,-66 126,-189 54,-278 -62,-76 -198,-31 -272,-4 -96,36 -191,85 -275,144 -36,26 -2,86 35,60 60,-42 125,-77 190,-108 71,-34 171,-81 252,-57 38,12 38,66 33,97 -8,58 -67,100 -111,130 -89,60 -192,96 -288,143 -40,20 -5,80 35,60l0 0z"/>
     <path id="39" class="fil1" d="M19153 5133c14,241 43,480 85,718 8,44 75,25 67,-18 -40,-232 -69,-464 -82,-699 -3,-45 -72,-45 -69,0l0 0z"/>
     <path id="40" class="fil1" d="M19358 6163c98,-53 213,-88 325,-90 58,-1 117,13 146,67 29,52 5,104 -42,131 -82,48 -185,48 -270,92 -60,31 -117,113 -117,183 0,147 263,108 347,98 162,-19 320,-69 482,-87 44,-5 44,-74 0,-69 -162,18 -320,67 -482,87 -78,10 -165,21 -242,0 -72,-20 -12,-99 20,-132 64,-67 195,-64 277,-101 89,-41 127,-121 96,-216 -74,-223 -437,-96 -574,-22 -39,21 -4,81 35,60l0 0z"/>
     <path id="41" class="fil2" d="M19222 3050c-1,-76 -5,-152 -4,-229 1,-94 -1,-206 41,-293 11,-23 28,-36 51,-18 23,18 22,69 23,95 7,95 -2,190 8,285 6,60 24,145 97,153 72,7 128,-49 153,-110 36,-91 43,-197 58,-293 13,-80 20,-200 78,-263 63,-70 84,131 86,153 6,99 -6,198 -7,297 -1,45 69,45 69,0 1,-109 13,-217 6,-327 -6,-79 -22,-186 -116,-202 -170,-28 -183,330 -199,429 -10,62 -13,191 -73,229 -84,54 -83,-62 -86,-120 -5,-106 48,-400 -123,-404 -110,-3 -122,186 -129,259 -11,120 -3,239 -2,359 0,45 70,45 69,0l0 0z"/>
     <path id="42" class="fil2" d="M20155 2653c148,-26 264,-113 379,-204 140,-111 280,-185 464,-157 44,7 63,-60 18,-67 -170,-26 -315,15 -454,115 -137,98 -253,216 -426,246 -44,8 -25,75 18,67l0 0z"/>
     <path id="43" class="fil2" d="M20135 2441c213,-136 404,-364 677,-356 45,1 45,-68 0,-69 -290,-8 -486,222 -712,366 -38,24 -3,84 35,60l0 0z"/>
     <path id="44" class="fil2" d="M18843 4436c152,145 204,426 7,557 -37,25 -2,85 35,60 235,-156 193,-488 7,-666 -32,-31 -82,18 -49,49l0 0z"/>
     <path id="45" class="fil2" d="M18844 5399c52,-26 104,-49 163,-51 45,-1 45,-71 0,-69 -72,2 -135,29 -198,60 -40,20 -5,80 35,60l0 0z"/>
     <path id="46" class="fil2" d="M18899 5649c36,-23 78,-36 121,-37 45,-1 45,-70 0,-69 -55,1 -110,17 -156,46 -38,24 -3,84 35,60l0 0z"/>
     <path id="47" class="fil2" d="M18951 5918c57,-1 109,-16 156,-46 37,-24 3,-84 -35,-60 -38,24 -76,36 -121,37 -45,1 -45,70 0,69l0 0z"/>
     <path id="48" class="fil2" d="M18771 4140c323,37 279,-447 228,-641 -11,-43 -78,-25 -67,18 40,151 99,583 -161,553 -44,-5 -44,64 0,69l0 0z"/>
     <path id="49" class="fil2" d="M18947 3002c-430,-115 -228,521 -225,728 1,45 70,45 69,0 -2,-136 -44,-271 -54,-408 -5,-66 -7,-141 20,-202 31,-72 105,-69 170,-51 43,12 62,-55 18,-67l0 0z"/>
     <path id="50" class="fil1" d="M18731 6063c13,117 7,235 22,352 12,97 33,259 141,299 115,43 168,-62 174,-159 7,-130 -42,-254 -45,-382 -1,-45 -71,-45 -69,0 2,96 31,191 41,286 5,48 9,267 -96,177 -72,-62 -76,-208 -84,-294 -8,-93 -4,-188 -14,-281 -5,-44 -74,-44 -69,0l0 0z"/>
     <path id="51" class="fil1" d="M18743 2805c111,29 254,12 279,-121 26,-140 -106,-170 -183,-252 -28,-30 -49,-100 -17,-132 31,-32 97,-32 138,-34 110,-5 220,13 329,-2 44,-6 25,-73 -18,-67 -102,14 -208,-3 -310,0 -75,2 -185,13 -215,96 -34,92 31,186 103,236 49,35 118,65 107,136 -14,95 -121,92 -193,73 -43,-11 -62,56 -18,67l0 0z"/>
     <path id="52" class="fil1" d="M20958 6553c97,131 184,280 332,360 39,21 75,-39 35,-60 -137,-74 -217,-213 -307,-335 -26,-36 -87,-1 -60,35l0 0z"/>
     <path id="53" class="fil1" d="M19992 6871c150,-79 319,-107 478,-163 42,-15 24,-82 -18,-67 -165,58 -338,88 -494,170 -40,21 -5,81 35,60l0 0z"/>
     <path id="54" class="fil3" d="M20714 4552c84,-56 172,-106 269,-135 43,-13 25,-80 -18,-67 -103,31 -197,83 -286,142 -37,25 -2,85 35,60l0 0z"/>
     <path id="55" class="fil3" d="M20286 5128c14,-65 42,-118 88,-165 31,-32 -18,-81 -49,-49 -54,56 -90,120 -106,196 -9,44 58,62 67,18l0 0z"/>
     <path id="56" class="fil1" d="M16576 6311c-82,437 336,875 779,751 43,-12 25,-79 -18,-67 -389,109 -766,-279 -693,-666 8,-44 -59,-62 -67,-18l0 0z"/>
     <path id="57" class="fil1" d="M16933 6636c94,104 222,134 358,135 45,0 45,-69 0,-69 -119,-1 -226,-24 -309,-115 -30,-33 -79,16 -49,49l0 0z"/>
     <path id="58" class="fil1" d="M17290 7396c329,-22 452,-365 308,-636 -21,-40 -81,-4 -60,35 118,222 28,513 -248,531 -44,3 -45,72 0,69l0 0z"/>
     <path id="59" class="fil1" d="M15155 6350c136,-80 325,-159 479,-83 40,20 75,-40 35,-60 -179,-88 -389,-11 -549,83 -39,23 -4,83 35,60l0 0z"/>
     <path id="60" class="fil1" d="M15966 5951c57,-10 99,17 133,61 28,35 76,-14 49,-49 -50,-64 -120,-92 -200,-78 -44,8 -25,75 18,67l0 0z"/>
     <path id="61" class="fil1" d="M16013 6382c27,1 54,18 64,44 15,42 82,24 67,-18 -21,-56 -71,-93 -131,-95 -45,-1 -45,68 0,69l0 0z"/>
     <path id="62" class="fil1" d="M16027 6785c34,1 63,23 87,45 32,31 81,-18 49,-49 -37,-36 -83,-64 -136,-66 -45,-2 -45,68 0,69l0 0z"/>
     <path id="63" class="fil1" d="M16474 5823c-127,120 -135,320 -135,483 0,45 69,45 69,0 1,-144 2,-328 115,-434 33,-31 -17,-80 -49,-49l0 0z"/>
     <path id="64" class="fil2" d="M14700 6195c0,145 5,289 57,426 16,42 83,24 67,-18 -49,-132 -54,-269 -54,-407 0,-45 -69,-45 -69,0l0 0z"/>
     <path id="65" class="fil2" d="M14478 6264c12,124 2,251 43,370 14,42 81,24 67,-18 -39,-114 -29,-234 -40,-352 -4,-44 -74,-45 -69,0l0 0z"/>
     <path id="66" class="fil2" d="M14241 6602c-55,-186 -77,-396 33,-567 107,-166 319,-216 503,-223 45,-2 45,-71 0,-69 -212,8 -425,68 -556,246 -132,181 -107,429 -47,631 13,43 80,25 67,-18l0 0z"/>
     <path id="67" class="fil2" d="M15061 6056c27,-219 71,-419 -1,-634 -14,-42 -81,-24 -67,18 70,209 25,404 -1,616 -5,44 64,44 69,0l0 0z"/>
     <path id="68" class="fil2" d="M16286 5520c121,-36 260,-36 362,47 110,89 99,236 54,355 -16,42 51,60 67,18 56,-147 52,-312 -71,-423 -116,-104 -289,-107 -430,-64 -43,13 -25,80 18,67l0 0z"/>
     <path id="69" class="fil2" d="M15242 6542c-3,134 86,248 227,234 153,-15 226,-165 217,-304 -3,-44 -72,-45 -69,0 7,106 -34,211 -147,234 -104,21 -161,-74 -159,-165 1,-45 -68,-45 -69,0l0 0z"/>
     <path id="70" class="fil2" d="M17094 5761c-52,96 -81,207 -97,314 -16,105 -21,238 62,318 81,79 200,47 262,-36 75,-100 76,-244 101,-362 9,-44 -58,-62 -67,-18 -20,94 -28,190 -61,281 -32,89 -139,164 -207,60 -51,-77 -29,-198 -13,-282 16,-82 41,-167 80,-241 21,-39 -39,-74 -60,-35l0 0z"/>
     <path id="71" class="fil2" d="M15297 5959c0,5 0,9 0,14 0,19 16,35 35,35 19,0 35,-16 35,-35 0,-5 0,-9 0,-14 0,-19 -16,-35 -35,-35 -19,0 -35,16 -35,35l0 0z"/>
     <path id="72" class="fil2" d="M15544 5906c-5,5 -9,9 -14,14 -13,13 -13,36 0,49 13,13 36,13 49,0 5,-5 9,-9 14,-14 13,-13 13,-36 0,-49 -13,-13 -36,-13 -49,0l0 0z"/>
     <path id="73" class="fil2" d="M15397 5631c170,-66 357,-40 528,-97 42,-14 24,-81 -18,-67 -171,58 -358,31 -528,97 -41,16 -23,83 18,67l0 0z"/>
     <path id="74" class="fil2" d="M15469 5011c-46,87 -119,326 52,326 75,0 144,-53 179,-115 45,-79 52,-180 156,-202 -14,-8 -28,-16 -43,-24 20,92 12,281 154,263 118,-16 161,-188 164,-286 1,-45 -68,-45 -69,0 -2,62 -28,207 -106,218 -67,9 -66,-170 -75,-213 -4,-19 -25,-28 -43,-24 -137,29 -146,156 -211,256 -28,43 -135,96 -144,16 -7,-61 19,-127 47,-179 21,-40 -39,-75 -60,-35l0 0z"/>
     <path id="75" class="fil3" d="M18210 6656c-255,197 -417,-247 -279,-430 27,-36 -33,-70 -60,-35 -98,130 -75,322 5,455 90,150 251,162 383,60 35,-27 -14,-76 -49,-49l0 0z"/>
     <path id="76" class="fil3" d="M18121 6469c84,-101 136,-226 102,-359 -27,-104 -108,-185 -206,-226 -98,-41 -208,-22 -289,44 -126,103 -143,297 -139,447 1,45 71,45 69,0 -5,-191 62,-515 325,-429 80,26 144,95 170,175 35,107 -13,217 -82,300 -28,34 20,84 49,49l0 0z"/>
     <path id="77" class="fil3" d="M16489 5183c92,-45 214,46 285,97 85,61 164,136 229,217 28,35 77,-14 49,-49 -80,-100 -179,-187 -286,-258 -88,-59 -208,-117 -312,-67 -40,19 -5,79 35,60l0 0z"/>
     <path id="78" class="fil3" d="M16793 4921c52,-89 121,-158 210,-210 39,-23 4,-83 -35,-60 -99,58 -177,136 -235,235 -23,39 37,74 60,35l0 0z"/>
     <path id="79" class="fil3" d="M17037 5108c92,-78 189,-145 304,-186 42,-15 24,-82 -18,-67 -126,44 -233,117 -335,203 -34,29 15,78 49,49l0 0z"/>
     <path id="80" class="fil3" d="M17239 5392c88,-58 181,-110 278,-153 41,-18 6,-78 -35,-60 -97,43 -189,94 -278,153 -37,25 -2,85 35,60l0 0z"/>
     <path id="81" class="fil3" d="M17447 5697c67,-42 150,-66 228,-80 44,-8 25,-75 -18,-67 -83,15 -173,42 -244,87 -38,24 -3,84 35,60l0 0z"/>
     <path id="82" class="fil3" d="M13854 6158c-43,175 -65,351 31,513 23,38 83,4 60,-35 -87,-145 -63,-303 -24,-459 11,-43 -56,-62 -67,-18l0 0z"/>
     <path id="83" class="fil3" d="M14107 5781c-100,-125 -104,-300 65,-364 57,-21 121,-20 172,15 69,46 71,148 64,221 -4,45 65,44 69,0 9,-99 -6,-212 -92,-276 -70,-51 -162,-53 -241,-24 -81,30 -144,93 -172,175 -37,108 18,219 85,302 28,35 77,-15 49,-49l0 0z"/>
     <path id="84" class="fil3" d="M14763 5077c45,0 45,-69 0,-69 -45,0 -45,69 0,69l0 0z"/>
     <path id="85" class="fil3" d="M14777 5355c45,0 45,-69 0,-69 -45,0 -45,69 0,69l0 0z"/>
     <path id="86" class="fil3" d="M15242 5056c22,-191 106,-367 304,-420 178,-47 376,13 541,78 42,16 60,-51 18,-67 -192,-75 -416,-134 -618,-66 -207,69 -291,274 -315,475 -5,44 64,44 69,0l0 0z"/>
     <path id="87" class="fil3" d="M15471 6452c5,0 9,0 14,0 19,0 35,-16 35,-35 0,-19 -16,-35 -35,-35 -5,0 -9,0 -14,0 -19,0 -35,16 -35,35 0,19 16,35 35,35l0 0z"/>
     <path id="88" class="fil3" d="M17270 6056c0,-9 0,-19 0,-28 0,-19 -16,-35 -35,-35 -19,0 -35,16 -35,35 0,9 0,19 0,28 0,19 16,35 35,35 19,0 35,-16 35,-35l0 0z"/>
     <path id="89" class="fil1" d="M13589 6250c-13,200 113,389 96,592 -4,46 -35,76 -77,94 -45,19 -73,-24 -91,-59 -41,-78 -57,-177 -71,-264 -15,-86 -33,-214 -111,-267 -84,-58 -151,101 -170,152 -37,98 -13,223 7,322 22,110 56,227 116,323 24,38 84,3 60,-35 -58,-91 -87,-201 -109,-306 -27,-125 -35,-246 29,-361 41,-72 65,12 79,56 18,55 26,112 39,169 19,84 34,168 72,247 78,164 276,89 297,-70 26,-202 -109,-392 -96,-592 3,-45 -67,-44 -69,0l0 0z"/>
     <path id="90" class="fil1" d="M13391 6058c118,-58 243,-101 346,-186 80,-66 126,-189 54,-278 -62,-76 -198,-31 -272,-4 -96,36 -191,85 -275,144 -36,26 -2,86 35,60 60,-42 125,-77 190,-108 71,-34 171,-81 252,-57 38,12 38,66 33,97 -8,58 -67,100 -111,130 -89,60 -192,96 -288,143 -40,20 -5,80 35,60l0 0z"/>
     <path id="91" class="fil1" d="M17509 4711c209,159 275,448 345,688 13,43 80,25 67,-18 -76,-260 -151,-556 -377,-729 -36,-27 -70,33 -35,60l0 0z"/>
     <path id="92" class="fil1" d="M17858 4740c140,200 228,445 231,691 1,45 70,45 69,0 -3,-257 -94,-516 -241,-726 -25,-36 -86,-2 -60,35l0 0z"/>
     <path id="93" class="fil2" d="M13256 5459c-1,-76 -5,-152 -4,-229 1,-94 -1,-206 41,-293 11,-23 28,-36 51,-18 23,18 22,69 23,95 7,95 -2,190 8,285 6,60 24,145 97,153 72,7 128,-49 153,-110 36,-91 43,-197 58,-293 13,-80 20,-200 78,-263 63,-70 84,131 86,153 6,99 -6,198 -7,297 -1,45 69,45 69,0 1,-109 13,-217 6,-327 -6,-79 -22,-186 -116,-202 -170,-28 -183,330 -199,429 -10,62 -13,191 -73,229 -84,54 -83,-62 -86,-120 -5,-106 48,-400 -123,-404 -110,-3 -122,186 -129,259 -11,120 -3,239 -2,359 0,45 70,45 69,0l0 0z"/>
     <path id="94" class="fil2" d="M14189 5062c148,-26 264,-113 379,-204 140,-111 280,-185 464,-157 44,7 63,-60 18,-67 -170,-26 -315,15 -454,115 -137,98 -253,216 -426,246 -44,8 -25,75 18,67l0 0z"/>
     <path id="95" class="fil2" d="M14169 4850c213,-136 404,-364 677,-356 45,1 45,-68 0,-69 -290,-8 -486,222 -712,366 -38,24 -3,84 35,60l0 0z"/>
     <path id="96" class="fil2" d="M16396 4440c25,142 -13,299 73,425 12,18 38,24 55,7 100,-103 170,-227 217,-363 15,-42 -52,-61 -67,-18 -43,124 -108,237 -199,332 18,2 36,5 55,7 -80,-117 -43,-275 -66,-408 -8,-44 -75,-25 -67,18l0 0z"/>
     <path id="97" class="fil2" d="M18212 5701c231,71 224,367 225,564 0,45 69,45 69,0 0,-233 -7,-548 -276,-631 -43,-13 -61,54 -18,67l0 0z"/>
     <path id="98" class="fil2" d="M18425 6589c62,-12 122,-26 185,-27 45,-1 45,-70 0,-69 -69,1 -136,15 -204,29 -44,9 -25,76 18,67l0 0z"/>
     <path id="99" class="fil2" d="M18466 6812c60,-15 121,-27 181,-42 43,-11 25,-78 -18,-67 -60,15 -121,27 -181,42 -43,11 -25,78 18,67l0 0z"/>
     <path id="100" class="fil2" d="M12877 6844c152,145 204,426 7,557 -37,25 -2,85 35,60 235,-155 193,-488 7,-666 -32,-31 -82,18 -49,49l0 0z"/>
     <path id="101" class="fil2" d="M12804 6549c323,37 279,-447 228,-641 -11,-43 -78,-25 -67,18 40,151 99,583 -161,553 -44,-5 -44,64 0,69l0 0z"/>
     <path id="102" class="fil2" d="M12980 5411c-430,-115 -228,521 -225,728 1,45 70,45 69,0 -2,-136 -44,-271 -54,-408 -5,-66 -7,-141 20,-202 31,-72 105,-69 170,-51 43,12 62,-55 18,-67l0 0z"/>
     <path id="103" class="fil1" d="M12777 5214c111,29 254,12 279,-121 26,-140 -106,-170 -183,-252 -28,-30 -49,-100 -17,-132 31,-32 97,-32 138,-34 110,-5 220,13 329,-2 44,-6 25,-73 -18,-67 -102,14 -208,-3 -310,0 -75,2 -185,13 -215,96 -34,92 31,186 103,236 49,35 118,65 107,136 -14,95 -121,92 -193,73 -43,-11 -62,56 -18,67l0 0z"/>
     <path id="104" class="fil1" d="M17248 4516c121,-52 252,-90 385,-79 45,4 44,-66 0,-69 -145,-12 -288,31 -420,88 -41,18 -6,78 35,60l0 0z"/>
     <path id="105" class="fil1" d="M18067 4599c115,-58 238,-130 371,-120 -11,-15 -22,-29 -33,-44 -49,151 -161,273 -194,431 -6,28 16,47 43,43 100,-16 194,-50 296,-40 -12,-12 -23,-23 -35,-35 -19,163 -177,271 -245,413 -10,21 -2,44 21,51 83,26 168,43 250,69 43,14 61,-53 18,-67 -83,-26 -168,-43 -250,-69 7,17 14,34 21,51 76,-157 233,-266 255,-448 2,-20 -18,-33 -35,-35 -109,-10 -209,26 -315,43 14,14 28,28 43,43 33,-157 145,-280 194,-431 7,-23 -12,-42 -33,-44 -145,-10 -281,67 -406,130 -40,20 -5,80 35,60l0 0z"/>
     <path id="106" class="fil3" d="M14748 6961c84,-56 172,-106 269,-135 43,-13 25,-80 -18,-67 -103,31 -197,83 -286,142 -37,25 -2,85 35,60l0 0z"/>
     <path id="107" class="fil3" d="M16308 6579c29,84 72,160 134,224 31,32 80,-17 49,-49 -54,-55 -91,-120 -116,-193 -15,-42 -82,-24 -67,18l0 0z"/>
     <path id="108" class="fil1" d="M8901 5800c1,-174 37,-351 135,-498 110,-166 299,-221 489,-186 136,25 203,136 198,271 -6,152 -127,214 -263,172 -43,-13 -61,54 -18,67 160,50 309,-16 345,-186 29,-139 -30,-315 -169,-370 -201,-80 -442,-26 -588,131 -146,158 -195,391 -197,600 0,45 69,45 69,0l0 0z"/>
     <path id="109" class="fil1" d="M9835 4949c43,-44 82,-95 117,-146 25,-37 -35,-72 -60,-35 -31,46 -66,92 -106,132 -31,32 18,81 49,49l0 0z"/>
     <path id="110" class="fil1" d="M9991 5321c45,-1 88,-13 129,-33 40,-20 5,-79 -35,-60 -29,14 -61,22 -94,23 -45,1 -45,70 0,69l0 0z"/>
     <path id="111" class="fil1" d="M10610 3902c-82,437 336,875 779,751 43,-12 25,-79 -18,-67 -389,109 -766,-279 -693,-666 8,-44 -59,-62 -67,-18l0 0z"/>
     <path id="112" class="fil1" d="M10966 4227c94,104 222,134 358,135 45,0 45,-69 0,-69 -119,-1 -226,-24 -309,-115 -30,-33 -79,16 -49,49l0 0z"/>
     <path id="113" class="fil1" d="M11324 4987c329,-22 452,-365 308,-636 -21,-40 -81,-4 -60,35 118,222 28,513 -248,531 -44,3 -45,72 0,69l0 0z"/>
     <path id="114" class="fil1" d="M10000 3542c57,-10 99,17 133,61 28,35 76,-14 49,-49 -50,-64 -120,-92 -200,-78 -44,8 -25,75 18,67l0 0z"/>
     <path id="115" class="fil1" d="M10046 3973c27,1 54,18 64,44 15,42 82,24 67,-18 -21,-56 -71,-93 -131,-95 -45,-1 -45,68 0,69l0 0z"/>
     <path id="116" class="fil1" d="M10060 4376c34,1 63,23 87,45 32,31 81,-18 49,-49 -37,-36 -83,-64 -136,-66 -45,-2 -45,68 0,69l0 0z"/>
     <path id="117" class="fil1" d="M10508 3414c-127,120 -135,320 -135,483 0,45 69,45 69,0 1,-144 2,-328 115,-434 33,-31 -17,-80 -49,-49l0 0z"/>
     <path id="118" class="fil1" d="M10388 5087c65,337 -51,734 -434,791 -44,7 -25,73 18,67 423,-63 554,-505 483,-876 -8,-44 -75,-25 -67,18l0 0z"/>
     <path id="119" class="fil1" d="M9651 5939c8,262 384,551 601,316 30,-33 -19,-82 -49,-49 -173,187 -476,-64 -482,-267 -1,-45 -71,-45 -69,0l0 0z"/>
     <path id="120" class="fil2" d="M10319 3111c121,-36 260,-36 362,47 110,89 99,236 54,355 -16,42 51,60 67,18 56,-147 52,-312 -71,-423 -116,-104 -289,-107 -430,-64 -43,13 -25,80 18,67l0 0z"/>
     <path id="121" class="fil2" d="M10791 5184c50,209 -69,484 -248,600 -37,24 -3,84 35,60 206,-133 338,-437 280,-678 -10,-44 -77,-25 -67,18l0 0z"/>
     <path id="122" class="fil2" d="M11065 5292c48,16 98,28 148,29 45,1 45,-69 0,-69 -44,-1 -88,-13 -130,-27 -43,-14 -61,53 -18,67l0 0z"/>
     <path id="123" class="fil2" d="M11051 5528c41,13 84,15 125,28 43,13 61,-54 18,-67 -41,-13 -84,-15 -125,-28 -43,-13 -61,54 -18,67l0 0z"/>
     <path id="124" class="fil2" d="M10991 5751c44,2 84,31 109,66 26,36 86,2 60,-35 -39,-56 -99,-98 -169,-101 -45,-2 -45,68 0,69l0 0z"/>
     <path id="125" class="fil2" d="M10807 5955c52,26 99,60 126,113 21,40 81,5 60,-35 -33,-62 -90,-106 -151,-137 -40,-20 -75,40 -35,60l0 0z"/>
     <path id="126" class="fil2" d="M11127 3352c-52,96 -81,207 -97,314 -16,105 -21,238 62,318 81,79 200,47 262,-36 75,-100 76,-244 101,-362 9,-44 -58,-62 -67,-18 -20,94 -28,190 -61,281 -32,89 -139,164 -207,60 -51,-77 -29,-198 -13,-282 16,-82 41,-167 80,-241 21,-39 -39,-74 -60,-35l0 0z"/>
     <path id="127" class="fil2" d="M10474 4686c5,-5 9,-9 14,-14 13,-13 13,-36 0,-49 -13,-13 -36,-13 -49,0 -5,5 -9,9 -14,14 -13,13 -13,36 0,49 13,13 36,13 49,0l0 0z"/>
     <path id="128" class="fil2" d="M10782 4835c45,0 45,-69 0,-69 -45,0 -45,69 0,69l0 0z"/>
     <path id="129" class="fil2" d="M9431 3222c170,-66 356,-40 528,-97 42,-14 24,-81 -18,-67 -171,58 -358,31 -528,97 -41,16 -23,83 18,67l0 0z"/>
     <path id="130" class="fil2" d="M9502 2602c-46,87 -119,326 52,326 75,0 143,-53 179,-115 45,-79 52,-180 156,-202 -14,-8 -28,-16 -43,-24 20,92 12,281 154,263 118,-16 161,-188 164,-286 1,-45 -68,-45 -69,0 -2,62 -28,207 -106,218 -67,9 -66,-170 -75,-213 -4,-19 -25,-28 -43,-24 -137,29 -146,156 -211,256 -28,43 -135,96 -144,16 -7,-61 19,-127 47,-179 21,-40 -39,-75 -60,-35l0 0z"/>
     <path id="131" class="fil2" d="M9942 6772c-2,-42 -9,-100 22,-133 22,-24 75,-9 101,-3 71,16 101,72 162,103 62,31 112,-24 145,-69 49,-67 61,-134 69,-214 4,-39 -1,-166 58,-167 68,-1 87,85 107,134 19,46 40,96 89,116 65,27 120,-68 145,-110 23,-39 -37,-73 -60,-35 -9,15 -43,83 -67,78 -18,-4 -33,-52 -40,-66 -22,-51 -37,-118 -83,-155 -41,-33 -115,-48 -157,-10 -48,42 -52,116 -58,175 -9,93 -16,163 -79,239 -28,34 -45,21 -72,-5 -26,-23 -51,-46 -82,-62 -52,-27 -141,-45 -197,-19 -76,35 -77,131 -73,203 2,45 72,45 69,0l0 0z"/>
     <path id="132" class="fil3" d="M11582 5166c-26,177 -17,446 -206,535 -41,19 -5,79 35,60 212,-99 209,-378 238,-576 6,-44 -60,-63 -67,-18l0 0z"/>
     <path id="133" class="fil3" d="M11734 5147c7,100 -9,200 -35,296 -25,93 -68,205 -156,257 -38,23 -4,83 35,60 185,-110 239,-417 226,-613 -3,-44 -73,-45 -69,0l0 0z"/>
     <path id="134" class="fil3" d="M12038 5193c-43,-138 -15,-316 30,-451 8,-24 18,-50 36,-70 8,-9 15,6 24,22 49,83 39,161 30,252 -6,58 -3,137 63,160 71,25 133,-8 175,-64 90,-123 78,-336 61,-479 -5,-44 -75,-44 -69,0 9,76 10,153 5,229 -5,79 -16,203 -93,247 -104,60 -67,-133 -63,-173 8,-77 -16,-159 -59,-223 -84,-124 -165,38 -187,114 -40,138 -63,315 -19,455 13,43 80,24 67,-18l0 0z"/>
     <path id="135" class="fil3" d="M12244 4248c-255,197 -417,-247 -279,-430 27,-36 -33,-70 -60,-35 -98,130 -75,322 5,455 91,150 251,162 383,60 35,-27 -14,-76 -49,-49l0 0z"/>
     <path id="136" class="fil3" d="M12154 4061c84,-101 136,-226 102,-359 -27,-104 -108,-185 -206,-226 -98,-41 -208,-22 -289,44 -126,103 -143,297 -139,447 1,45 71,45 69,0 -5,-191 62,-515 325,-429 80,26 144,95 170,175 35,107 -13,217 -82,300 -28,34 20,84 49,49l0 0z"/>
     <path id="137" class="fil3" d="M10522 2774c92,-45 214,46 285,97 85,61 164,136 228,217 28,35 77,-14 49,-49 -80,-100 -179,-187 -286,-258 -88,-59 -208,-117 -312,-67 -40,19 -5,79 35,60l0 0z"/>
     <path id="138" class="fil3" d="M10826 2512c52,-89 121,-158 210,-210 39,-23 4,-83 -35,-60 -99,58 -177,136 -235,235 -23,39 37,74 60,35l0 0z"/>
     <path id="139" class="fil3" d="M11071 2699c92,-78 189,-145 304,-186 42,-15 24,-82 -18,-67 -126,44 -233,117 -335,203 -34,29 15,78 49,49l0 0z"/>
     <path id="140" class="fil3" d="M11272 2983c88,-58 181,-110 278,-153 41,-18 6,-78 -35,-60 -97,43 -189,94 -278,153 -37,25 -2,85 35,60l0 0z"/>
     <path id="141" class="fil3" d="M11481 3288c67,-42 150,-66 228,-80 44,-8 25,-75 -18,-67 -83,15 -173,42 -244,87 -38,24 -3,84 35,60l0 0z"/>
     <path id="142" class="fil3" d="M9276 2647c22,-191 106,-367 304,-420 178,-47 376,13 541,78 42,16 60,-51 18,-67 -192,-75 -416,-134 -618,-66 -207,69 -291,274 -315,475 -5,44 64,44 69,0l0 0z"/>
     <path id="143" class="fil3" d="M11303 3647c0,-9 0,-19 0,-28 0,-19 -16,-35 -35,-35 -19,0 -35,16 -35,35 0,9 0,19 0,28 0,19 16,35 35,35 19,0 35,-16 35,-35l0 0z"/>
     <path id="144" class="fil3" d="M9991 5598c45,0 45,-69 0,-69 -45,0 -45,69 0,69l0 0z"/>
     <path id="145" class="fil3" d="M11193 6124c-86,207 -92,565 214,558 45,-1 45,-71 0,-69 -255,6 -214,-310 -147,-470 17,-41 -50,-59 -67,-18l0 0z"/>
     <path id="146" class="fil3" d="M11489 5921c-95,186 -73,376 89,514 34,29 83,-20 49,-49 -138,-118 -160,-271 -78,-430 20,-40 -40,-75 -60,-35l0 0z"/>
     <path id="147" class="fil1" d="M12055 5360c-21,138 -122,251 -175,377 -40,98 -87,230 -36,333 38,77 125,45 176,4 74,-61 117,-162 157,-247 28,-59 183,-440 282,-359 73,60 0,194 -31,258 -42,90 -93,182 -156,259 -28,34 21,84 49,49 57,-70 103,-149 145,-229 45,-86 95,-188 92,-287 -3,-67 -60,-128 -127,-131 -72,-4 -129,74 -165,125 -110,156 -151,364 -284,503 -41,43 -81,46 -89,-20 -8,-74 21,-152 46,-220 50,-135 160,-249 182,-395 7,-44 -60,-63 -67,-18l0 0z"/>
     <path id="148" class="fil1" d="M11543 2302c209,159 275,448 345,688 13,43 80,25 67,-18 -76,-260 -151,-556 -377,-729 -36,-27 -70,33 -35,60l0 0z"/>
     <path id="149" class="fil1" d="M11891 2331c140,200 228,445 231,691 1,45 70,45 69,0 -3,-257 -94,-516 -241,-726 -25,-36 -86,-2 -60,35l0 0z"/>
     <path id="150" class="fil2" d="M10430 2031c25,142 -13,299 73,425 12,18 38,24 55,7 100,-103 170,-227 217,-363 15,-42 -52,-61 -67,-18 -43,124 -108,237 -199,332 18,2 36,5 55,7 -80,-117 -43,-275 -66,-408 -8,-44 -75,-25 -67,18l0 0z"/>
     <path id="151" class="fil2" d="M12245 3292c231,71 224,367 225,564 0,45 69,45 69,0 0,-233 -7,-548 -275,-631 -43,-13 -61,54 -18,67l0 0z"/>
     <path id="152" class="fil2" d="M12458 4181c62,-12 122,-26 185,-27 45,-1 45,-70 0,-69 -69,1 -136,15 -204,29 -44,9 -25,76 18,67l0 0z"/>
     <path id="153" class="fil2" d="M12500 4403c60,-15 121,-27 181,-42 43,-11 25,-78 -18,-67 -60,15 -121,27 -181,42 -43,11 -25,78 18,67l0 0z"/>
     <path id="154" class="fil2" d="M11963 6348c264,13 668,-108 646,-438 -3,-44 -72,-45 -69,0 19,288 -351,379 -576,368 -45,-2 -45,67 0,69l0 0z"/>
     <path id="155" class="fil2" d="M11824 6640c240,-1 475,-36 670,-185 35,-27 1,-87 -35,-60 -187,142 -406,175 -635,176 -45,0 -45,70 0,69l0 0z"/>
     <path id="156" class="fil2" d="M12610 4749c-24,125 -4,246 13,370 6,44 75,44 69,0 -15,-117 -38,-234 -15,-352 8,-44 -59,-62 -67,-18l0 0z"/>
     <path id="157" class="fil1" d="M11281 2107c121,-52 252,-90 385,-79 45,4 44,-66 0,-69 -145,-12 -288,31 -420,88 -41,18 -6,78 35,60l0 0z"/>
     <path id="158" class="fil1" d="M12101 2191c115,-58 238,-130 371,-120 -11,-15 -22,-29 -33,-44 -49,151 -161,273 -194,431 -6,28 16,47 43,43 100,-16 194,-50 296,-40 -12,-12 -23,-23 -35,-35 -19,163 -177,271 -245,413 -10,21 -2,44 21,51 83,26 168,43 250,69 43,14 61,-53 18,-67 -83,-26 -168,-43 -250,-69 7,17 14,34 21,51 76,-157 233,-266 255,-448 2,-20 -18,-33 -35,-35 -109,-10 -209,26 -315,43 14,14 28,28 43,43 33,-157 145,-280 194,-431 7,-23 -12,-42 -33,-44 -145,-10 -281,67 -406,130 -40,20 -5,80 35,60l0 0z"/>
     <path id="159" class="fil3" d="M10121 4649c68,42 118,105 174,161 32,32 81,-17 49,-49 -60,-61 -115,-127 -188,-172 -38,-24 -73,36 -35,60l0 0z"/>
     <path id="160" class="fil3" d="M10342 4170c29,84 72,160 134,224 31,32 80,-17 49,-49 -54,-55 -91,-120 -116,-193 -15,-42 -82,-24 -67,18l0 0z"/>
     <path id="161" class="fil1" d="M20833 982c1,-174 37,-351 135,-498 110,-166 299,-221 489,-186 136,25 203,136 198,271 -6,152 -127,214 -263,172 -43,-13 -61,54 -18,67 160,50 309,-16 345,-186 29,-139 -30,-315 -169,-370 -201,-80 -442,-26 -588,131 -147,158 -195,391 -197,600 0,45 69,45 69,0l0 0z"/>
     <path id="162" class="fil1" d="M20400 779c72,22 157,28 231,29 45,1 45,-69 0,-69 -69,-1 -147,-6 -213,-27 -43,-13 -61,54 -18,67l0 0z"/>
     <path id="163" class="fil1" d="M21376 -162c19,46 -4,125 -24,168 -19,40 41,76 60,35 18,-38 28,-79 34,-121 4,-31 10,-70 -2,-100 -17,-41 -84,-23 -67,18l0 0z"/>
     <path id="164" class="fil1" d="M20539 349c53,13 111,23 158,52 38,24 73,-36 35,-60 -53,-33 -116,-44 -175,-59 -43,-11 -62,56 -18,67l0 0z"/>
     <path id="165" class="fil1" d="M20882 -108c-14,-2 3,8 8,14 11,13 21,28 30,42 20,31 38,62 57,94 23,38 83,3 60,-35 -25,-42 -49,-84 -78,-124 -20,-28 -41,-55 -77,-60 -44,-6 -44,64 0,69l0 0z"/>
     <path id="166" class="fil1" d="M21122 -877c136,-80 325,-159 479,-83 40,20 75,-40 35,-60 -179,-88 -389,-11 -549,83 -39,23 -4,83 35,60l0 0z"/>
     <path id="167" class="fil1" d="M21583 1121c8,262 384,551 601,316 30,-33 -19,-82 -49,-49 -173,187 -476,-64 -482,-267 -1,-45 -71,-45 -69,0l0 0z"/>
     <path id="168" class="fil2" d="M20023 263c84,-151 190,-292 354,-359 41,-17 23,-84 -18,-67 -183,75 -302,222 -396,391 -22,39 38,74 60,35l0 0z"/>
     <path id="169" class="fil2" d="M20667 -1032c0,145 5,289 57,426 16,42 83,24 67,-18 -49,-132 -54,-269 -54,-407 0,-45 -69,-45 -69,0l0 0z"/>
     <path id="170" class="fil2" d="M20444 -962c12,124 2,251 43,370 14,42 81,24 67,-18 -39,-114 -29,-234 -40,-352 -4,-44 -74,-45 -69,0l0 0z"/>
     <path id="171" class="fil2" d="M20207 -624c-55,-186 -77,-396 33,-567 107,-166 319,-216 503,-223 45,-2 45,-71 0,-69 -212,8 -425,68 -556,246 -132,181 -107,429 -47,631 13,43 80,25 67,-18l0 0z"/>
     <path id="172" class="fil2" d="M21028 -1171c27,-219 71,-419 -1,-634 -14,-42 -81,-24 -67,18 70,209 25,404 -1,616 -5,44 64,44 69,0l0 0z"/>
     <path id="173" class="fil2" d="M21208 -685c-3,134 86,248 227,234 153,-15 226,-165 217,-304 -3,-44 -72,-45 -69,0 7,106 -34,211 -147,234 -104,21 -161,-74 -159,-165 1,-45 -68,-45 -69,0l0 0z"/>
     <path id="174" class="fil2" d="M21139 996c2,273 69,561 246,775 29,34 78,-15 49,-49 -165,-198 -224,-473 -226,-725 0,-45 -70,-45 -69,0l0 0z"/>
     <path id="175" class="fil2" d="M21437 1294c45,0 45,-69 0,-69 -45,0 -45,69 0,69l0 0z"/>
     <path id="176" class="fil2" d="M21507 1517c45,0 45,-69 0,-69 -45,0 -45,69 0,69l0 0z"/>
     <path id="177" class="fil2" d="M21007 1336c45,0 45,-69 0,-69 -45,0 -45,69 0,69l0 0z"/>
     <path id="178" class="fil2" d="M21062 1586c45,0 45,-69 0,-69 -45,0 -45,69 0,69l0 0z"/>
     <path id="179" class="fil2" d="M21264 -1268c0,5 0,9 0,14 0,19 16,35 35,35 19,0 35,-16 35,-35 0,-5 0,-9 0,-14 0,-19 -16,-35 -35,-35 -19,0 -35,16 -35,35l0 0z"/>
     <path id="180" class="fil2" d="M21510 -1320c-5,5 -9,9 -14,14 -13,13 -13,36 0,49 13,13 36,13 49,0 5,-5 9,-9 14,-14 13,-13 13,-36 0,-49 -13,-13 -36,-13 -49,0l0 0z"/>
     <path id="181" class="fil2" d="M20118 -219c45,0 45,-69 0,-69 -45,0 -45,69 0,69l0 0z"/>
     <path id="182" class="fil2" d="M19868 -25c9,0 19,0 28,0 19,0 35,-16 35,-35 0,-19 -16,-35 -35,-35 -9,0 -19,0 -28,0 -19,0 -35,16 -35,35 0,19 16,35 35,35l0 0z"/>
     <path id="183" class="fil2" d="M21363 -1596c170,-66 357,-40 528,-97 42,-14 24,-81 -18,-67 -171,58 -358,31 -528,97 -41,16 -23,83 18,67l0 0z"/>
     <path id="184" class="fil2" d="M21435 -2216c-46,87 -119,326 52,326 75,0 144,-53 179,-115 45,-79 52,-180 156,-202 -14,-8 -28,-16 -43,-24 20,92 12,281 154,263 118,-16 161,-188 164,-286 1,-45 -68,-45 -69,0 -2,62 -28,207 -106,218 -67,9 -66,-170 -75,-213 -4,-19 -25,-28 -43,-24 -137,29 -146,156 -211,256 -28,43 -135,96 -144,16 -7,-61 19,-127 47,-179 21,-40 -39,-75 -60,-35l0 0z"/>
     <path id="185" class="fil2" d="M21265 431c-13,65 -29,129 -42,194 -9,44 58,62 67,18 13,-65 29,-129 42,-194 9,-44 -58,-62 -67,-18l0 0z"/>
     <path id="186" class="fil3" d="M20487 1126c-58,209 34,471 189,617 33,31 82,-18 49,-49 -138,-130 -224,-363 -172,-550 12,-43 -55,-62 -67,-18l0 0z"/>
     <path id="187" class="fil3" d="M20222 1065c-14,130 4,260 43,384 14,43 81,24 67,-18 -38,-119 -54,-242 -40,-366 5,-45 -65,-44 -69,0l0 0z"/>
     <path id="188" class="fil3" d="M19821 -1069c-43,175 -65,351 31,513 23,38 83,4 60,-35 -87,-146 -63,-303 -24,-459 11,-43 -56,-62 -67,-18l0 0z"/>
     <path id="189" class="fil3" d="M20073 -1445c-100,-125 -104,-300 65,-364 57,-21 121,-20 172,15 69,46 71,148 64,221 -4,45 65,44 69,0 9,-99 -6,-212 -92,-276 -70,-51 -162,-53 -241,-24 -81,30 -144,93 -172,175 -37,108 18,219 85,302 28,35 77,-15 49,-49l0 0z"/>
     <path id="190" class="fil3" d="M20729 -2150c45,0 45,-69 0,-69 -45,0 -45,69 0,69l0 0z"/>
     <path id="191" class="fil3" d="M20743 -1872c45,0 45,-69 0,-69 -45,0 -45,69 0,69l0 0z"/>
     <path id="192" class="fil3" d="M21208 -2171c22,-191 106,-367 304,-420 178,-47 376,13 541,78 42,16 60,-51 18,-67 -192,-76 -416,-134 -618,-66 -207,69 -291,274 -315,475 -5,44 64,44 69,0l0 0z"/>
     <path id="193" class="fil3" d="M19682 306c-41,129 19,255 135,319 120,66 253,22 331,-83 27,-36 -34,-71 -60,-35 -131,178 -403,21 -339,-182 14,-43 -54,-61 -67,-18l0 0z"/>
     <path id="194" class="fil3" d="M19477 62c-112,199 -142,434 -35,641 103,199 321,297 537,300 45,1 45,-69 0,-69 -198,-3 -379,-90 -477,-266 -100,-180 -62,-399 35,-571 22,-39 -38,-74 -60,-35l0 0z"/>
     <path id="195" class="fil3" d="M21437 -775c5,0 9,0 14,0 19,0 35,-16 35,-35 0,-19 -16,-35 -35,-35 -5,0 -9,0 -14,0 -19,0 -35,16 -35,35 0,19 16,35 35,35l0 0z"/>
     <path id="196" class="fil1" d="M19555 -976c-13,200 113,389 96,592 -4,46 -35,76 -77,94 -45,19 -73,-24 -91,-59 -41,-78 -57,-177 -71,-264 -15,-86 -33,-214 -111,-267 -84,-58 -151,101 -170,152 -37,98 -13,223 7,322 22,110 56,227 116,323 24,38 84,3 60,-35 -58,-91 -87,-201 -109,-306 -27,-125 -35,-246 29,-361 41,-72 65,12 79,56 18,55 26,112 39,169 19,84 34,168 72,247 78,164 276,89 297,-70 26,-202 -109,-392 -96,-592 3,-45 -67,-44 -69,0l0 0z"/>
     <path id="197" class="fil1" d="M19358 -1169c118,-58 243,-101 346,-186 80,-66 126,-189 54,-278 -62,-76 -198,-31 -272,-4 -96,36 -191,85 -275,144 -36,26 -2,86 35,60 60,-42 125,-77 190,-108 71,-34 171,-81 252,-57 38,12 38,66 33,97 -8,58 -67,100 -111,130 -89,60 -192,96 -288,143 -40,20 -5,80 35,60l0 0z"/>
     <path id="198" class="fil1" d="M19153 315c14,241 43,480 85,718 8,44 75,25 67,-18 -40,-232 -69,-464 -82,-699 -3,-45 -72,-45 -69,0l0 0z"/>
     <path id="199" class="fil1" d="M19358 1345c98,-53 213,-88 325,-90 58,-1 117,13 146,67 29,52 5,104 -42,131 -82,48 -185,48 -270,92 -60,31 -117,113 -117,183 0,147 263,108 347,98 162,-19 320,-69 482,-87 44,-5 44,-74 0,-69 -162,18 -320,67 -482,87 -78,10 -165,21 -242,0 -72,-20 -12,-99 20,-132 64,-67 195,-64 277,-101 89,-41 127,-121 96,-216 -74,-223 -437,-96 -574,-22 -39,21 -4,81 35,60l0 0z"/>
     <path id="200" class="fil2" d="M19222 -1768c-1,-76 -5,-152 -4,-229 1,-94 -1,-206 41,-293 11,-23 28,-36 51,-18 23,18 22,69 23,95 7,95 -2,190 8,285 6,60 24,145 97,153 72,7 128,-49 153,-110 36,-91 43,-197 58,-293 13,-80 20,-200 78,-263 63,-69 84,131 86,153 6,99 -6,198 -7,297 -1,45 69,45 69,0 1,-109 13,-217 6,-327 -6,-79 -22,-186 -116,-202 -170,-28 -183,330 -199,429 -10,62 -13,191 -73,229 -84,54 -83,-62 -86,-120 -5,-106 48,-400 -123,-404 -110,-3 -122,186 -129,259 -11,120 -3,239 -2,359 0,45 70,45 69,0l0 0z"/>
     <path id="201" class="fil2" d="M20155 -2165c148,-26 264,-113 379,-204 140,-111 280,-185 464,-157 44,7 63,-60 18,-67 -170,-26 -315,15 -454,115 -137,98 -253,216 -426,246 -44,8 -25,75 18,67l0 0z"/>
     <path id="202" class="fil2" d="M20135 -2377c213,-136 404,-364 677,-356 45,1 45,-68 0,-69 -290,-8 -486,222 -712,366 -38,24 -3,84 35,60l0 0z"/>
     <path id="203" class="fil2" d="M18843 -382c152,145 204,426 7,557 -37,25 -2,85 35,60 235,-155 193,-488 7,-666 -32,-31 -82,18 -49,49l0 0z"/>
     <path id="204" class="fil2" d="M18844 581c52,-26 104,-49 163,-51 45,-1 45,-71 0,-69 -72,2 -135,29 -198,60 -40,20 -5,80 35,60l0 0z"/>
     <path id="205" class="fil2" d="M18899 831c36,-23 78,-36 121,-37 45,-1 45,-70 0,-69 -55,1 -110,17 -156,46 -38,24 -3,84 35,60l0 0z"/>
     <path id="206" class="fil2" d="M18951 1100c57,-1 109,-16 156,-46 37,-24 3,-84 -35,-60 -38,24 -76,36 -121,37 -45,1 -45,70 0,69l0 0z"/>
     <path id="207" class="fil2" d="M18771 -678c323,37 279,-447 228,-641 -11,-43 -78,-25 -67,18 40,151 99,583 -161,553 -44,-5 -44,64 0,69l0 0z"/>
     <path id="208" class="fil2" d="M18947 -1815c-430,-115 -228,521 -225,728 1,45 70,45 69,0 -2,-136 -44,-271 -54,-408 -5,-66 -7,-141 20,-202 31,-72 105,-69 170,-51 43,12 62,-55 18,-67l0 0z"/>
     <path id="209" class="fil1" d="M18731 1245c13,117 7,235 22,352 12,97 33,259 141,299 115,43 168,-62 174,-159 7,-130 -42,-254 -45,-382 -1,-45 -71,-45 -69,0 2,96 31,191 41,286 5,48 9,267 -96,177 -72,-62 -76,-208 -84,-294 -8,-93 -4,-188 -14,-281 -5,-44 -74,-44 -69,0l0 0z"/>
     <path id="210" class="fil1" d="M18743 -2013c111,29 254,12 279,-121 26,-140 -106,-170 -183,-252 -28,-30 -49,-100 -17,-132 31,-32 97,-32 138,-34 110,-5 220,13 329,-2 44,-6 25,-73 -18,-67 -102,14 -208,-3 -310,0 -75,2 -185,13 -215,96 -34,92 31,186 103,236 49,35 118,65 107,136 -14,95 -121,92 -193,73 -43,-11 -62,56 -18,67l0 0z"/>
     <path id="211" class="fil1" d="M20958 1735c97,131 184,280 332,360 39,21 75,-39 35,-60 -137,-74 -217,-213 -307,-335 -26,-36 -87,-1 -60,35l0 0z"/>
     <path id="212" class="fil1" d="M19992 2053c150,-79 319,-107 478,-163 42,-15 24,-82 -18,-67 -165,58 -338,88 -494,170 -40,21 -5,81 35,60l0 0z"/>
     <path id="213" class="fil3" d="M20714 -266c84,-56 172,-106 269,-135 43,-13 25,-80 -18,-67 -103,31 -197,83 -286,142 -37,25 -2,85 35,60l0 0z"/>
     <path id="214" class="fil3" d="M20286 310c14,-65 42,-118 88,-165 31,-32 -18,-81 -49,-49 -54,56 -90,120 -106,196 -9,44 58,62 67,18l0 0z"/>
     <path id="215" class="fil1" d="M14867 3391c1,-174 37,-351 135,-498 110,-166 299,-221 489,-186 136,25 203,136 198,271 -6,152 -127,214 -263,172 -43,-13 -61,54 -18,67 160,50 309,-16 345,-186 29,-139 -30,-315 -169,-370 -201,-80 -442,-26 -588,131 -147,158 -195,391 -197,600 0,45 69,45 69,0l0 0z"/>
     <path id="216" class="fil1" d="M14434 3188c72,22 157,28 231,29 45,1 45,-69 0,-69 -69,-1 -147,-6 -213,-27 -43,-13 -61,54 -18,67l0 0z"/>
     <path id="217" class="fil1" d="M15410 2247c19,46 -4,125 -24,168 -19,40 41,76 60,35 18,-38 28,-79 34,-121 4,-31 10,-70 -2,-100 -17,-41 -84,-23 -67,18l0 0z"/>
     <path id="218" class="fil1" d="M14573 2758c53,13 111,23 158,52 38,24 73,-36 35,-60 -53,-33 -116,-44 -175,-59 -43,-11 -62,56 -18,67l0 0z"/>
     <path id="219" class="fil1" d="M14915 2301c-14,-2 3,8 8,14 11,13 21,28 30,42 20,31 38,62 57,94 23,38 83,3 60,-35 -25,-42 -49,-84 -78,-124 -20,-28 -41,-55 -77,-60 -44,-6 -44,64 0,69l0 0z"/>
     <path id="220" class="fil1" d="M15801 2540c43,-44 82,-95 117,-146 25,-37 -35,-72 -60,-35 -31,46 -66,92 -106,132 -31,32 18,81 49,49l0 0z"/>
     <path id="221" class="fil1" d="M15957 2912c45,-1 88,-13 129,-33 40,-19 5,-79 -35,-60 -29,14 -61,22 -94,23 -45,1 -45,70 0,69l0 0z"/>
     <path id="222" class="fil1" d="M16576 1493c-82,437 336,875 779,751 43,-12 25,-79 -18,-67 -389,109 -766,-279 -693,-666 8,-44 -59,-62 -67,-18l0 0z"/>
     <path id="223" class="fil1" d="M16933 1818c94,104 222,134 358,135 45,0 45,-69 0,-69 -119,-1 -226,-24 -309,-115 -30,-33 -79,16 -49,49l0 0z"/>
     <path id="224" class="fil1" d="M17290 2578c329,-22 452,-365 308,-636 -21,-40 -81,-4 -60,35 118,222 28,513 -248,531 -44,3 -45,72 0,69l0 0z"/>
     <path id="225" class="fil1" d="M15155 1532c136,-80 325,-159 479,-83 40,20 75,-40 35,-60 -179,-88 -389,-11 -549,83 -39,23 -4,83 35,60l0 0z"/>
     <path id="226" class="fil1" d="M15966 1133c57,-10 99,17 133,61 28,35 76,-14 49,-49 -50,-64 -120,-92 -200,-78 -44,8 -25,75 18,67l0 0z"/>
     <path id="227" class="fil1" d="M16013 1565c27,1 54,18 64,44 15,42 82,24 67,-18 -21,-56 -71,-93 -131,-95 -45,-1 -45,68 0,69l0 0z"/>
     <path id="228" class="fil1" d="M16027 1967c34,1 63,23 87,45 32,31 81,-18 49,-49 -37,-36 -83,-64 -136,-66 -45,-2 -45,68 0,69l0 0z"/>
     <path id="229" class="fil1" d="M16474 1005c-127,120 -135,320 -135,483 0,45 69,45 69,0 1,-144 2,-328 115,-434 33,-31 -17,-80 -49,-49l0 0z"/>
     <path id="230" class="fil1" d="M16354 2678c65,337 -51,734 -434,791 -44,7 -25,73 18,67 423,-63 554,-505 483,-876 -8,-44 -75,-25 -67,18l0 0z"/>
     <path id="231" class="fil1" d="M15617 3530c8,262 384,551 601,316 30,-33 -19,-82 -49,-49 -173,187 -476,-64 -482,-267 -1,-45 -71,-45 -69,0l0 0z"/>
     <path id="232" class="fil2" d="M14057 2672c84,-151 190,-292 354,-359 41,-17 23,-84 -18,-67 -183,75 -302,222 -396,391 -22,39 38,74 60,35l0 0z"/>
     <path id="233" class="fil2" d="M14700 1377c0,145 5,289 57,426 16,42 83,24 67,-18 -49,-132 -54,-269 -54,-407 0,-45 -69,-45 -69,0l0 0z"/>
     <path id="234" class="fil2" d="M14478 1446c12,124 2,251 43,370 14,42 81,24 67,-18 -39,-114 -29,-234 -40,-352 -4,-44 -74,-45 -69,0l0 0z"/>
     <path id="235" class="fil2" d="M14241 1784c-55,-186 -77,-396 33,-567 107,-166 319,-216 503,-223 45,-2 45,-71 0,-69 -212,8 -425,68 -556,246 -132,181 -107,429 -47,631 13,43 80,25 67,-18l0 0z"/>
     <path id="236" class="fil2" d="M15061 1238c27,-219 71,-419 -1,-634 -14,-42 -81,-24 -67,18 70,209 25,404 -1,616 -5,44 64,44 69,0l0 0z"/>
     <path id="237" class="fil2" d="M16286 702c121,-36 260,-36 362,47 110,89 99,236 54,355 -16,42 51,60 67,18 56,-147 52,-312 -71,-423 -116,-104 -289,-107 -430,-64 -43,13 -25,80 18,67l0 0z"/>
     <path id="238" class="fil2" d="M16757 2775c50,209 -69,484 -248,600 -37,24 -3,84 35,60 206,-133 338,-437 280,-678 -10,-44 -77,-25 -67,18l0 0z"/>
     <path id="239" class="fil2" d="M17031 2883c48,16 98,28 148,29 45,1 45,-69 0,-69 -44,-1 -88,-13 -130,-27 -43,-14 -61,53 -18,67l0 0z"/>
     <path id="240" class="fil2" d="M17017 3119c41,13 84,15 125,28 43,13 61,-54 18,-67 -41,-13 -84,-15 -125,-28 -43,-13 -61,54 -18,67l0 0z"/>
     <path id="241" class="fil2" d="M16957 3342c44,2 84,31 109,66 26,36 86,2 60,-35 -39,-56 -99,-98 -169,-101 -45,-2 -45,68 0,69l0 0z"/>
     <path id="242" class="fil2" d="M16773 3546c52,26 99,60 126,113 21,40 81,5 60,-35 -33,-62 -90,-106 -151,-137 -40,-20 -75,40 -35,60l0 0z"/>
     <path id="243" class="fil2" d="M15242 1724c-3,134 86,248 227,234 153,-15 226,-165 217,-304 -3,-44 -72,-45 -69,0 7,106 -34,211 -147,234 -104,21 -161,-74 -159,-165 1,-45 -68,-45 -69,0l0 0z"/>
     <path id="244" class="fil2" d="M17094 943c-52,96 -81,207 -97,314 -16,105 -21,238 62,318 81,79 200,47 262,-36 75,-100 76,-244 101,-362 9,-44 -58,-62 -67,-18 -20,94 -28,190 -61,281 -32,89 -139,164 -207,60 -51,-77 -29,-198 -13,-282 16,-82 41,-167 80,-241 21,-39 -39,-74 -60,-35l0 0z"/>
     <path id="245" class="fil2" d="M15172 3405c2,273 69,561 246,775 29,34 78,-15 49,-49 -165,-198 -224,-473 -226,-725 0,-45 -70,-45 -69,0l0 0z"/>
     <path id="246" class="fil2" d="M15471 3703c45,0 45,-69 0,-69 -45,0 -45,69 0,69l0 0z"/>
     <path id="247" class="fil2" d="M15540 3926c45,0 45,-69 0,-69 -45,0 -45,69 0,69l0 0z"/>
     <path id="248" class="fil2" d="M15040 3745c45,0 45,-69 0,-69 -45,0 -45,69 0,69l0 0z"/>
     <path id="249" class="fil2" d="M15096 3995c45,0 45,-69 0,-69 -45,0 -45,69 0,69l0 0z"/>
     <path id="250" class="fil2" d="M15297 1141c0,5 0,9 0,14 0,19 16,35 35,35 19,0 35,-16 35,-35 0,-5 0,-9 0,-14 0,-19 -16,-35 -35,-35 -19,0 -35,16 -35,35l0 0z"/>
     <path id="251" class="fil2" d="M15544 1089c-5,5 -9,9 -14,14 -13,13 -13,36 0,49 13,13 36,13 49,0 5,-5 9,-9 14,-14 13,-13 13,-36 0,-49 -13,-13 -36,-13 -49,0l0 0z"/>
     <path id="252" class="fil2" d="M14152 2190c45,0 45,-69 0,-69 -45,0 -45,69 0,69l0 0z"/>
     <path id="253" class="fil2" d="M13902 2384c9,0 19,0 28,0 19,0 35,-16 35,-35 0,-19 -16,-35 -35,-35 -9,0 -19,0 -28,0 -19,0 -35,16 -35,35 0,19 16,35 35,35l0 0z"/>
     <path id="254" class="fil2" d="M16440 2277c5,-5 9,-9 14,-14 13,-13 13,-36 0,-49 -13,-13 -36,-13 -49,0 -5,5 -9,9 -14,14 -13,13 -13,36 0,49 13,13 36,13 49,0l0 0z"/>
     <path id="255" class="fil2" d="M16749 2426c45,0 45,-69 0,-69 -45,0 -45,69 0,69l0 0z"/>
     <path id="256" class="fil2" d="M15397 813c170,-66 357,-40 528,-97 42,-14 24,-81 -18,-67 -171,58 -358,31 -528,97 -41,16 -23,83 18,67l0 0z"/>
     <path id="257" class="fil2" d="M15469 193c-46,87 -119,326 52,326 75,0 144,-53 179,-115 45,-79 52,-180 156,-202 -14,-8 -28,-16 -43,-24 20,92 12,281 154,263 118,-16 161,-188 164,-286 1,-45 -68,-45 -69,0 -2,62 -28,207 -106,218 -67,9 -66,-170 -75,-213 -4,-19 -25,-28 -43,-24 -137,29 -146,156 -211,256 -28,43 -135,96 -144,16 -7,-61 19,-127 47,-179 21,-40 -39,-75 -60,-35l0 0z"/>
     <path id="258" class="fil2" d="M15299 2840c-13,65 -29,129 -42,194 -9,44 58,62 67,18 13,-65 29,-129 42,-194 9,-44 -58,-62 -67,-18l0 0z"/>
     <path id="259" class="fil2" d="M15909 4363c-2,-42 -9,-100 22,-133 22,-24 75,-9 101,-3 71,16 101,72 162,103 62,31 112,-24 145,-69 49,-67 61,-134 69,-214 4,-39 -1,-166 58,-167 68,-1 87,85 107,134 19,46 40,96 89,116 65,27 120,-68 145,-110 23,-39 -37,-73 -60,-35 -9,15 -43,83 -67,78 -18,-4 -33,-52 -40,-66 -22,-51 -37,-118 -83,-155 -41,-33 -115,-48 -157,-10 -48,42 -52,116 -58,175 -9,93 -16,163 -79,239 -28,34 -45,21 -72,-5 -26,-23 -51,-46 -82,-62 -52,-27 -141,-45 -197,-19 -76,35 -77,131 -73,203 2,45 72,45 69,0l0 0z"/>
     <path id="260" class="fil3" d="M14521 3534c-58,209 34,471 189,617 33,31 82,-18 49,-49 -138,-130 -224,-363 -172,-550 12,-43 -55,-62 -67,-18l0 0z"/>
     <path id="261" class="fil3" d="M14256 3474c-14,130 4,260 43,384 13,43 81,24 67,-18 -38,-119 -54,-242 -40,-366 5,-45 -65,-44 -69,0l0 0z"/>
     <path id="262" class="fil3" d="M17549 2757c-26,177 -17,446 -206,535 -41,19 -5,79 35,60 212,-99 209,-378 238,-576 6,-44 -60,-63 -67,-18l0 0z"/>
     <path id="263" class="fil3" d="M17700 2738c7,100 -9,200 -35,296 -26,93 -68,205 -156,257 -38,23 -4,83 35,60 185,-110 239,-417 226,-613 -3,-44 -73,-45 -69,0l0 0z"/>
     <path id="264" class="fil3" d="M18005 2784c-43,-138 -15,-316 30,-451 8,-24 18,-50 36,-70 8,-9 15,6 24,22 49,83 39,161 30,252 -6,58 -3,137 63,160 71,25 133,-8 175,-64 90,-123 78,-336 61,-479 -5,-44 -75,-44 -69,0 9,76 10,153 5,229 -5,79 -16,203 -93,247 -104,60 -67,-133 -63,-173 8,-77 -16,-159 -59,-223 -84,-124 -165,38 -187,114 -40,138 -63,315 -19,455 13,43 80,24 67,-18l0 0z"/>
     <path id="265" class="fil3" d="M18210 1839c-255,197 -417,-247 -279,-430 27,-36 -33,-70 -60,-35 -98,130 -75,322 5,455 90,150 251,162 383,60 35,-27 -14,-76 -49,-49l0 0z"/>
     <path id="266" class="fil3" d="M18121 1652c84,-101 136,-226 102,-359 -27,-104 -108,-185 -206,-226 -98,-41 -208,-22 -289,44 -126,103 -143,297 -139,447 1,45 71,45 69,0 -5,-191 62,-515 325,-429 80,26 144,95 170,175 35,107 -13,217 -82,300 -28,34 20,84 49,49l0 0z"/>
     <path id="267" class="fil3" d="M16489 365c92,-44 214,46 285,97 85,61 164,136 229,217 28,35 77,-14 49,-49 -80,-100 -179,-187 -286,-258 -88,-59 -208,-117 -312,-67 -40,19 -5,79 35,60l0 0z"/>
     <path id="268" class="fil3" d="M16793 103c52,-89 121,-158 210,-210 39,-23 4,-83 -35,-60 -99,58 -177,136 -235,235 -23,39 37,74 60,35l0 0z"/>
     <path id="269" class="fil3" d="M17037 290c92,-78 189,-145 304,-186 42,-15 24,-82 -18,-67 -126,44 -233,117 -335,203 -34,29 15,78 49,49l0 0z"/>
     <path id="270" class="fil3" d="M17239 574c88,-58 181,-110 278,-153 41,-18 6,-78 -35,-60 -97,43 -189,94 -278,153 -37,25 -2,85 35,60l0 0z"/>
     <path id="271" class="fil3" d="M17447 879c67,-42 150,-66 228,-80 44,-8 25,-75 -18,-67 -83,15 -173,42 -244,87 -38,24 -3,84 35,60l0 0z"/>
     <path id="272" class="fil3" d="M13854 1340c-43,175 -65,351 31,513 23,38 83,4 60,-35 -87,-146 -63,-303 -24,-459 11,-43 -56,-62 -67,-18l0 0z"/>
     <path id="273" class="fil3" d="M14107 964c-100,-125 -104,-300 65,-364 57,-21 121,-20 172,15 69,46 71,148 64,221 -4,45 65,44 69,0 9,-99 -6,-212 -92,-276 -70,-51 -162,-53 -241,-24 -81,30 -144,93 -172,175 -37,108 18,219 85,302 28,35 77,-15 49,-49l0 0z"/>
     <path id="274" class="fil3" d="M14763 259c45,0 45,-69 0,-69 -45,0 -45,69 0,69l0 0z"/>
     <path id="275" class="fil3" d="M14777 537c45,0 45,-69 0,-69 -45,0 -45,69 0,69l0 0z"/>
     <path id="276" class="fil3" d="M15242 238c22,-191 106,-367 304,-420 178,-47 376,13 541,78 42,16 60,-51 18,-67 -192,-76 -416,-134 -618,-66 -207,69 -291,274 -315,475 -5,44 64,44 69,0l0 0z"/>
     <path id="277" class="fil3" d="M13715 2715c-41,129 19,255 135,319 120,66 253,22 331,-83 27,-36 -34,-71 -60,-35 -131,178 -403,21 -339,-182 14,-43 -54,-61 -67,-18l0 0z"/>
     <path id="278" class="fil3" d="M13510 2471c-112,199 -142,434 -35,641 103,199 321,297 537,300 45,1 45,-69 0,-69 -198,-3 -379,-90 -477,-266 -100,-180 -62,-399 35,-571 22,-39 -38,-74 -60,-35l0 0z"/>
     <path id="279" class="fil3" d="M15471 1634c5,0 9,0 14,0 19,0 35,-16 35,-35 0,-19 -16,-35 -35,-35 -5,0 -9,0 -14,0 -19,0 -35,16 -35,35 0,19 16,35 35,35l0 0z"/>
     <path id="280" class="fil3" d="M17270 1238c0,-9 0,-19 0,-28 0,-19 -16,-35 -35,-35 -19,0 -35,16 -35,35 0,9 0,19 0,28 0,19 16,35 35,35 19,0 35,-16 35,-35l0 0z"/>
     <path id="281" class="fil3" d="M15957 3190c45,0 45,-69 0,-69 -45,0 -45,69 0,69l0 0z"/>
     <path id="282" class="fil3" d="M17160 3715c-86,207 -92,565 214,558 45,-1 45,-71 0,-69 -255,6 -214,-310 -147,-470 17,-41 -50,-59 -67,-18l0 0z"/>
     <path id="283" class="fil3" d="M17455 3512c-95,186 -73,376 89,514 34,29 83,-20 49,-49 -138,-118 -160,-271 -78,-430 20,-40 -40,-75 -60,-35l0 0z"/>
     <path id="284" class="fil1" d="M18021 2951c-21,138 -122,251 -175,377 -40,98 -87,230 -36,333 38,77 125,45 176,4 74,-61 117,-162 157,-247 28,-59 183,-440 282,-359 73,60 0,194 -31,258 -42,90 -93,182 -156,259 -28,34 21,84 49,49 57,-70 103,-149 145,-229 45,-86 95,-188 92,-287 -3,-67 -60,-128 -127,-131 -72,-4 -129,74 -165,125 -110,156 -151,364 -284,503 -41,43 -81,46 -89,-20 -8,-74 21,-152 46,-220 50,-135 160,-249 182,-395 7,-44 -60,-63 -67,-18l0 0z"/>
     <path id="285" class="fil1" d="M13589 1433c-13,200 113,389 96,592 -4,46 -35,76 -77,94 -45,19 -73,-24 -91,-59 -41,-78 -57,-177 -71,-264 -15,-86 -33,-214 -111,-267 -84,-58 -151,101 -170,152 -37,98 -13,223 7,322 22,110 56,227 116,323 24,38 84,3 60,-35 -58,-91 -87,-201 -109,-306 -27,-125 -35,-246 29,-361 41,-72 65,12 79,56 18,55 26,112 39,169 19,84 34,168 72,247 78,164 276,89 297,-70 26,-202 -109,-392 -96,-592 3,-45 -67,-44 -69,0l0 0z"/>
     <path id="286" class="fil1" d="M13391 1240c118,-58 243,-101 346,-186 80,-66 126,-189 54,-278 -62,-76 -198,-31 -272,-4 -96,36 -191,85 -275,144 -36,26 -2,86 35,60 60,-42 125,-77 190,-108 71,-34 171,-81 252,-57 38,12 38,66 33,97 -8,58 -67,100 -111,130 -89,60 -192,96 -288,143 -40,20 -5,80 35,60l0 0z"/>
     <path id="287" class="fil1" d="M17509 -107c209,159 275,448 345,688 13,43 80,25 67,-18 -76,-260 -151,-556 -377,-729 -36,-27 -70,33 -35,60l0 0z"/>
     <path id="288" class="fil1" d="M17858 -78c140,200 228,445 231,691 1,45 70,45 69,0 -3,-257 -94,-516 -241,-726 -25,-36 -86,-2 -60,35l0 0z"/>
     <path id="289" class="fil1" d="M13186 2724c14,241 43,480 85,718 8,44 75,25 67,-18 -40,-232 -69,-464 -82,-699 -3,-45 -72,-45 -69,0l0 0z"/>
     <path id="290" class="fil1" d="M13391 3754c98,-53 213,-88 325,-90 58,-1 117,13 146,67 29,52 5,104 -42,131 -82,48 -185,48 -270,92 -60,31 -117,113 -117,183 0,147 263,108 347,98 162,-19 320,-69 482,-87 44,-5 44,-74 0,-69 -162,18 -320,67 -482,87 -78,10 -165,21 -242,0 -72,-20 -12,-99 20,-132 64,-67 195,-64 277,-101 89,-41 127,-121 96,-216 -74,-223 -437,-96 -574,-22 -39,21 -4,81 35,60l0 0z"/>
     <path id="291" class="fil2" d="M13256 641c-1,-76 -5,-152 -4,-229 1,-94 -1,-206 41,-293 11,-23 28,-36 51,-18 23,18 22,69 23,95 7,95 -2,190 8,285 6,60 24,145 97,153 72,7 128,-49 153,-110 36,-91 43,-197 58,-293 13,-80 20,-200 78,-263 63,-70 84,131 86,153 6,99 -6,198 -7,297 -1,45 69,45 69,0 1,-109 13,-217 6,-327 -6,-79 -22,-186 -116,-202 -170,-28 -183,330 -199,429 -10,62 -13,191 -73,229 -84,54 -83,-62 -86,-120 -5,-106 48,-400 -123,-404 -110,-3 -122,186 -129,259 -11,120 -3,239 -2,359 0,45 70,45 69,0l0 0z"/>
     <path id="292" class="fil2" d="M14189 244c148,-26 264,-113 379,-204 140,-111 280,-185 464,-157 44,7 63,-60 18,-67 -170,-26 -315,15 -454,115 -137,98 -253,216 -426,246 -44,8 -25,75 18,67l0 0z"/>
     <path id="293" class="fil2" d="M14169 32c213,-136 404,-364 677,-356 45,1 45,-68 0,-69 -290,-8 -486,222 -712,366 -38,24 -3,84 35,60l0 0z"/>
     <path id="294" class="fil2" d="M16396 -378c25,142 -13,299 73,425 12,18 38,24 55,7 100,-103 170,-227 217,-363 15,-42 -52,-61 -67,-18 -43,124 -108,237 -199,332 18,2 36,5 55,7 -80,-117 -43,-275 -66,-408 -8,-44 -75,-25 -67,18l0 0z"/>
     <path id="295" class="fil2" d="M18212 883c231,71 224,367 225,564 0,45 69,45 69,0 0,-233 -7,-548 -276,-631 -43,-13 -61,54 -18,67l0 0z"/>
     <path id="296" class="fil2" d="M18425 1772c62,-12 122,-26 185,-27 45,-1 45,-70 0,-69 -69,1 -136,15 -204,29 -44,9 -25,76 18,67l0 0z"/>
     <path id="297" class="fil2" d="M18466 1994c60,-15 121,-27 181,-42 43,-11 25,-78 -18,-67 -60,15 -121,27 -181,42 -43,11 -25,78 18,67l0 0z"/>
     <path id="298" class="fil2" d="M17929 3940c264,13 668,-108 646,-438 -3,-44 -72,-45 -69,0 19,288 -351,379 -576,368 -45,-2 -45,67 0,69l0 0z"/>
     <path id="299" class="fil2" d="M17790 4231c240,-1 475,-36 670,-185 35,-27 1,-87 -35,-60 -187,142 -406,175 -635,176 -45,0 -45,70 0,69l0 0z"/>
     <path id="300" class="fil2" d="M18576 2340c-24,125 -4,246 13,370 6,44 75,44 69,0 -15,-117 -38,-234 -15,-352 8,-44 -59,-62 -67,-18l0 0z"/>
     <path id="301" class="fil2" d="M12877 2027c152,145 204,426 7,557 -37,25 -2,85 35,60 235,-155 193,-488 7,-666 -32,-31 -82,18 -49,49l0 0z"/>
     <path id="302" class="fil2" d="M12877 2990c52,-26 104,-49 163,-51 45,-1 45,-71 0,-69 -72,2 -135,29 -198,60 -40,20 -5,80 35,60l0 0z"/>
     <path id="303" class="fil2" d="M12933 3240c36,-23 78,-36 121,-37 45,-1 45,-70 0,-69 -55,1 -110,17 -156,46 -38,24 -3,84 35,60l0 0z"/>
     <path id="304" class="fil2" d="M12985 3509c57,-1 109,-16 156,-46 37,-24 3,-84 -35,-60 -38,24 -76,36 -121,37 -45,1 -45,70 0,69l0 0z"/>
     <path id="305" class="fil2" d="M12804 1731c323,37 279,-447 228,-641 -11,-43 -78,-25 -67,18 40,151 99,583 -161,553 -44,-5 -44,64 0,69l0 0z"/>
     <path id="306" class="fil2" d="M12980 594c-430,-115 -228,521 -225,728 1,45 70,45 69,0 -2,-136 -44,-271 -54,-408 -5,-66 -7,-141 20,-202 31,-72 105,-69 170,-51 43,12 62,-55 18,-67l0 0z"/>
     <path id="307" class="fil1" d="M12765 3654c13,117 7,235 22,352 12,97 33,259 141,299 115,43 168,-62 174,-159 7,-130 -42,-254 -45,-382 -1,-45 -71,-45 -69,0 2,96 31,191 41,286 5,48 9,267 -96,177 -72,-62 -76,-208 -84,-294 -8,-93 -4,-188 -14,-281 -5,-44 -74,-44 -69,0l0 0z"/>
     <path id="308" class="fil1" d="M12777 396c111,29 254,12 279,-121 26,-140 -106,-170 -183,-252 -28,-30 -49,-100 -17,-132 31,-32 97,-32 138,-34 110,-5 220,13 329,-2 44,-6 25,-73 -18,-67 -102,14 -208,-3 -310,0 -75,2 -185,13 -215,96 -34,92 31,186 103,236 49,35 118,65 107,136 -14,95 -121,92 -193,73 -43,-11 -62,56 -18,67l0 0z"/>
     <path id="309" class="fil1" d="M17248 -302c121,-52 252,-90 385,-79 45,4 44,-66 0,-69 -145,-12 -288,31 -420,88 -41,18 -6,78 35,60l0 0z"/>
     <path id="310" class="fil1" d="M18067 -218c115,-58 238,-130 371,-120 -11,-15 -22,-29 -33,-44 -49,151 -161,273 -194,431 -6,28 16,47 43,43 100,-16 194,-50 296,-40 -12,-12 -23,-23 -35,-35 -19,163 -177,271 -245,413 -10,21 -2,44 21,51 83,26 168,43 250,69 43,14 61,-53 18,-67 -83,-26 -168,-43 -250,-69 7,17 14,34 21,51 76,-157 233,-266 255,-448 2,-20 -18,-33 -35,-35 -109,-10 -209,26 -315,43 14,14 28,28 43,43 33,-157 145,-280 194,-431 7,-23 -12,-42 -33,-44 -145,-10 -281,67 -406,130 -40,20 -5,80 35,60l0 0z"/>
     <path id="311" class="fil1" d="M14992 4144c97,131 184,280 332,360 39,21 75,-39 35,-60 -137,-74 -217,-213 -307,-335 -26,-36 -87,-1 -60,35l0 0z"/>
     <path id="312" class="fil1" d="M14026 4462c150,-79 319,-107 478,-163 42,-15 24,-82 -18,-67 -165,58 -338,88 -494,170 -40,21 -5,81 35,60l0 0z"/>
     <path id="313" class="fil3" d="M14748 2143c84,-56 172,-106 269,-135 43,-13 25,-80 -18,-67 -103,31 -197,83 -286,142 -37,25 -2,85 35,60l0 0z"/>
     <path id="314" class="fil3" d="M16088 2240c68,42 118,105 174,161 32,32 81,-17 49,-49 -60,-61 -115,-127 -188,-172 -38,-24 -73,36 -35,60l0 0z"/>
     <path id="315" class="fil3" d="M16308 1761c29,84 72,160 134,224 31,32 80,-17 49,-49 -54,-55 -91,-120 -116,-193 -15,-42 -82,-24 -67,18l0 0z"/>
     <path id="316" class="fil3" d="M14319 2719c14,-65 42,-118 88,-165 31,-32 -18,-81 -49,-49 -54,56 -90,120 -106,196 -9,44 58,62 67,18l0 0z"/>
     <path id="317" class="fil1" d="M8901 982c1,-174 37,-351 135,-498 110,-166 299,-221 489,-186 136,25 203,136 198,271 -6,152 -127,214 -263,172 -43,-13 -61,54 -18,67 160,50 309,-16 345,-186 29,-139 -30,-315 -169,-370 -201,-80 -442,-26 -588,131 -146,158 -195,391 -197,600 0,45 69,45 69,0l0 0z"/>
     <path id="318" class="fil1" d="M9835 132c43,-44 82,-95 117,-146 25,-37 -35,-72 -60,-35 -31,46 -66,92 -106,132 -31,32 18,81 49,49l0 0z"/>
     <path id="319" class="fil1" d="M9991 503c45,-1 88,-13 129,-33 40,-19 5,-79 -35,-60 -29,14 -61,22 -94,23 -45,1 -45,70 0,69l0 0z"/>
     <path id="320" class="fil1" d="M10610 -916c-82,437 336,875 779,751 43,-12 25,-79 -18,-67 -389,109 -766,-279 -693,-666 8,-44 -59,-62 -67,-18l0 0z"/>
     <path id="321" class="fil1" d="M10966 -591c94,104 222,134 358,135 45,0 45,-69 0,-69 -119,-1 -226,-24 -309,-115 -30,-33 -79,16 -49,49l0 0z"/>
     <path id="322" class="fil1" d="M11324 169c329,-22 452,-365 308,-636 -21,-40 -81,-4 -60,35 118,222 28,513 -248,531 -44,3 -45,72 0,69l0 0z"/>
     <path id="323" class="fil1" d="M10000 -1276c57,-10 99,17 133,61 28,35 76,-14 49,-49 -50,-64 -120,-92 -200,-78 -44,8 -25,75 18,67l0 0z"/>
     <path id="324" class="fil1" d="M10046 -844c27,1 54,18 64,44 15,42 82,24 67,-18 -21,-56 -71,-93 -131,-95 -45,-1 -45,68 0,69l0 0z"/>
     <path id="325" class="fil1" d="M10060 -442c34,1 63,23 87,45 32,31 81,-18 49,-49 -37,-36 -83,-64 -136,-66 -45,-2 -45,68 0,69l0 0z"/>
     <path id="326" class="fil1" d="M10508 -1404c-127,120 -135,320 -135,483 0,45 69,45 69,0 1,-144 2,-328 115,-434 33,-31 -17,-80 -49,-49l0 0z"/>
     <path id="327" class="fil1" d="M10388 269c65,337 -51,734 -434,791 -44,7 -25,73 18,67 423,-63 554,-505 483,-876 -8,-44 -75,-25 -67,18l0 0z"/>
     <path id="328" class="fil1" d="M9651 1121c8,262 384,551 601,316 30,-33 -19,-82 -49,-49 -173,187 -476,-64 -482,-267 -1,-45 -71,-45 -69,0l0 0z"/>
     <path id="329" class="fil2" d="M10319 -1707c121,-36 260,-36 362,47 110,89 99,236 54,355 -16,42 51,60 67,18 56,-147 52,-312 -71,-423 -116,-104 -289,-107 -430,-64 -43,13 -25,80 18,67l0 0z"/>
     <path id="330" class="fil2" d="M10791 366c50,209 -69,484 -248,600 -37,24 -3,84 35,60 206,-133 338,-437 280,-678 -10,-44 -77,-25 -67,18l0 0z"/>
     <path id="331" class="fil2" d="M11065 474c48,16 98,28 148,29 45,1 45,-69 0,-69 -44,-1 -88,-13 -130,-27 -43,-14 -61,53 -18,67l0 0z"/>
     <path id="332" class="fil2" d="M11051 710c41,13 84,15 125,28 43,13 61,-54 18,-67 -41,-13 -84,-15 -125,-28 -43,-13 -61,54 -18,67l0 0z"/>
     <path id="333" class="fil2" d="M10991 933c44,2 84,31 109,66 26,36 86,2 60,-35 -39,-56 -99,-98 -169,-101 -45,-2 -45,68 0,69l0 0z"/>
     <path id="334" class="fil2" d="M10807 1137c52,26 99,60 126,113 21,40 81,5 60,-35 -33,-62 -90,-106 -151,-137 -40,-20 -75,40 -35,60l0 0z"/>
     <path id="335" class="fil2" d="M11127 -1466c-52,96 -81,207 -97,314 -16,105 -21,238 62,318 81,79 200,47 262,-36 75,-100 76,-244 101,-362 9,-44 -58,-62 -67,-18 -20,94 -28,190 -61,281 -32,89 -139,164 -207,60 -51,-77 -29,-198 -13,-282 16,-82 41,-167 80,-241 21,-39 -39,-74 -60,-35l0 0z"/>
     <path id="336" class="fil2" d="M10474 -132c5,-5 9,-9 14,-14 13,-13 13,-36 0,-49 -13,-13 -36,-13 -49,0 -5,5 -9,9 -14,14 -13,13 -13,36 0,49 13,13 36,13 49,0l0 0z"/>
     <path id="337" class="fil2" d="M10782 17c45,0 45,-69 0,-69 -45,0 -45,69 0,69l0 0z"/>
     <path id="338" class="fil2" d="M9431 -1596c170,-66 356,-40 528,-97 42,-14 24,-81 -18,-67 -171,58 -358,31 -528,97 -41,16 -23,83 18,67l0 0z"/>
     <path id="339" class="fil2" d="M9502 -2216c-46,87 -119,326 52,326 75,0 143,-53 179,-115 45,-79 52,-180 156,-202 -14,-8 -28,-16 -43,-24 20,92 12,281 154,263 118,-16 161,-188 164,-286 1,-45 -68,-45 -69,0 -2,62 -28,207 -106,218 -67,9 -66,-170 -75,-213 -4,-19 -25,-28 -43,-24 -137,29 -146,156 -211,256 -28,43 -135,96 -144,16 -7,-61 19,-127 47,-179 21,-40 -39,-75 -60,-35l0 0z"/>
     <path id="340" class="fil2" d="M9942 1954c-2,-42 -9,-100 22,-133 22,-24 75,-9 101,-3 71,16 101,72 162,103 62,31 112,-24 145,-69 49,-67 61,-134 69,-214 4,-39 -1,-166 58,-167 68,-1 87,85 107,134 19,46 40,96 89,116 65,27 120,-68 145,-110 23,-39 -37,-73 -60,-35 -9,15 -43,83 -67,78 -18,-4 -33,-52 -40,-66 -22,-51 -37,-118 -83,-155 -41,-33 -115,-48 -157,-10 -48,42 -52,116 -58,175 -9,93 -16,163 -79,239 -28,34 -45,21 -72,-5 -26,-23 -51,-46 -82,-62 -52,-27 -141,-45 -197,-19 -76,35 -77,131 -73,203 2,45 72,45 69,0l0 0z"/>
     <path id="341" class="fil3" d="M11582 348c-26,177 -17,446 -206,535 -41,19 -5,79 35,60 212,-99 209,-378 238,-576 6,-44 -60,-63 -67,-18l0 0z"/>
     <path id="342" class="fil3" d="M11734 329c7,100 -9,200 -35,296 -25,93 -68,205 -156,257 -38,23 -4,83 35,60 185,-110 239,-417 226,-613 -3,-44 -73,-45 -69,0l0 0z"/>
     <path id="343" class="fil3" d="M12038 376c-43,-138 -15,-316 30,-451 8,-24 18,-50 36,-70 8,-9 15,6 24,22 49,83 39,161 30,252 -6,58 -3,137 63,160 71,25 133,-8 175,-64 90,-123 78,-336 61,-479 -5,-44 -75,-44 -69,0 9,76 10,153 5,229 -5,79 -16,203 -93,247 -104,60 -67,-133 -63,-173 8,-77 -16,-159 -59,-223 -84,-124 -165,38 -187,114 -40,138 -63,315 -19,455 13,43 80,24 67,-18l0 0z"/>
     <path id="344" class="fil3" d="M12244 -570c-255,197 -417,-247 -279,-430 27,-36 -33,-70 -60,-35 -98,130 -75,322 5,455 91,150 251,162 383,60 35,-27 -14,-76 -49,-49l0 0z"/>
     <path id="345" class="fil3" d="M12154 -757c84,-101 136,-226 102,-359 -27,-104 -108,-185 -206,-226 -98,-41 -208,-22 -289,44 -126,103 -143,297 -139,447 1,45 71,45 69,0 -5,-191 62,-515 325,-429 80,26 144,95 170,175 35,108 -13,217 -82,300 -28,34 20,84 49,49l0 0z"/>
     <path id="346" class="fil3" d="M10522 -2044c92,-45 214,46 285,97 85,61 164,136 228,217 28,35 77,-14 49,-49 -80,-100 -179,-187 -286,-258 -88,-59 -208,-117 -312,-67 -40,19 -5,79 35,60l0 0z"/>
     <path id="347" class="fil3" d="M10826 -2306c52,-89 121,-158 210,-210 39,-23 4,-83 -35,-60 -99,58 -177,136 -235,235 -23,39 37,74 60,35l0 0z"/>
     <path id="348" class="fil3" d="M11071 -2118c92,-78 189,-145 304,-186 42,-15 24,-82 -18,-67 -126,44 -233,117 -335,203 -34,29 15,78 49,49l0 0z"/>
     <path id="349" class="fil3" d="M11272 -1835c88,-58 181,-110 278,-153 41,-18 6,-78 -35,-60 -97,43 -189,94 -278,153 -37,25 -2,85 35,60l0 0z"/>
     <path id="350" class="fil3" d="M11481 -1530c67,-42 150,-66 228,-80 44,-8 25,-75 -18,-67 -83,15 -173,42 -244,87 -38,24 -3,84 35,60l0 0z"/>
     <path id="351" class="fil3" d="M9276 -2171c22,-191 106,-367 304,-420 178,-47 376,13 541,78 42,16 60,-51 18,-67 -192,-76 -416,-134 -618,-66 -207,69 -291,274 -315,475 -5,44 64,44 69,0l0 0z"/>
     <path id="352" class="fil3" d="M11303 -1171c0,-9 0,-19 0,-28 0,-19 -16,-35 -35,-35 -19,0 -35,16 -35,35 0,9 0,19 0,28 0,19 16,35 35,35 19,0 35,-16 35,-35l0 0z"/>
     <path id="353" class="fil3" d="M9991 781c45,0 45,-69 0,-69 -45,0 -45,69 0,69l0 0z"/>
     <path id="354" class="fil3" d="M11193 1306c-86,207 -92,565 214,558 45,-1 45,-71 0,-69 -255,6 -214,-310 -147,-470 17,-41 -50,-59 -67,-18l0 0z"/>
     <path id="355" class="fil3" d="M11489 1103c-95,186 -73,376 89,514 34,29 83,-20 49,-49 -138,-118 -160,-271 -78,-430 20,-40 -40,-75 -60,-35l0 0z"/>
     <path id="356" class="fil1" d="M12055 542c-21,138 -122,251 -175,377 -40,98 -87,230 -36,333 38,77 125,45 176,4 74,-61 117,-162 157,-247 28,-59 183,-440 282,-359 73,60 0,194 -31,258 -42,90 -93,182 -156,259 -28,34 21,84 49,49 57,-70 103,-149 145,-229 45,-86 95,-188 92,-287 -3,-67 -60,-128 -127,-131 -72,-4 -129,74 -165,125 -110,156 -151,364 -284,503 -41,43 -81,46 -89,-20 -8,-74 21,-152 46,-220 50,-135 160,-249 182,-395 7,-44 -60,-63 -67,-18l0 0z"/>
     <path id="357" class="fil1" d="M11543 -2516c209,159 275,448 345,688 13,43 80,25 67,-18 -76,-260 -151,-556 -377,-729 -36,-27 -70,33 -35,60l0 0z"/>
     <path id="358" class="fil1" d="M11891 -2487c140,200 228,445 231,691 1,45 70,45 69,0 -3,-257 -94,-516 -241,-726 -25,-36 -86,-2 -60,35l0 0z"/>
     <path id="359" class="fil2" d="M10430 -2787c25,142 -13,299 73,425 12,18 38,24 55,7 100,-103 170,-227 217,-363 15,-42 -52,-61 -67,-18 -43,124 -108,237 -199,332 18,2 36,5 55,7 -80,-117 -43,-275 -66,-408 -8,-44 -75,-25 -67,18l0 0z"/>
     <path id="360" class="fil2" d="M12245 -1526c231,71 224,367 225,564 0,45 69,45 69,0 0,-233 -7,-548 -275,-631 -43,-13 -61,54 -18,67l0 0z"/>
     <path id="361" class="fil2" d="M12458 -637c62,-12 122,-26 185,-27 45,-1 45,-70 0,-69 -69,1 -136,15 -204,29 -44,9 -25,76 18,67l0 0z"/>
     <path id="362" class="fil2" d="M12500 -415c60,-15 121,-27 181,-42 43,-11 25,-78 -18,-67 -60,15 -121,27 -181,42 -43,11 -25,78 18,67l0 0z"/>
     <path id="363" class="fil2" d="M11963 1531c264,13 668,-108 646,-438 -3,-44 -72,-45 -69,0 19,288 -351,379 -576,368 -45,-2 -45,67 0,69l0 0z"/>
     <path id="364" class="fil2" d="M11824 1822c240,-1 475,-36 670,-185 35,-27 1,-87 -35,-60 -187,142 -406,175 -635,176 -45,0 -45,70 0,69l0 0z"/>
     <path id="365" class="fil2" d="M12610 -69c-24,125 -4,246 13,370 6,44 75,44 69,0 -15,-117 -38,-234 -15,-352 8,-44 -59,-62 -67,-18l0 0z"/>
     <path id="366" class="fil1" d="M11281 -2711c121,-52 252,-90 385,-79 45,4 44,-66 0,-69 -145,-12 -288,31 -420,88 -41,18 -6,78 35,60l0 0z"/>
     <path id="367" class="fil1" d="M12101 -2627c115,-58 238,-130 371,-120 -11,-15 -22,-29 -33,-44 -49,151 -161,273 -194,431 -6,28 16,47 43,43 100,-16 194,-50 296,-40 -12,-12 -23,-23 -35,-35 -19,163 -177,271 -245,413 -10,21 -2,44 21,51 83,26 168,43 250,69 43,14 61,-53 18,-67 -83,-26 -168,-43 -250,-69 7,17 14,34 21,51 76,-157 233,-266 255,-448 2,-20 -18,-33 -35,-35 -109,-10 -209,26 -315,43 14,14 28,28 43,43 33,-157 145,-280 194,-431 7,-23 -12,-42 -33,-44 -145,-10 -281,67 -406,130 -40,20 -5,80 35,60l0 0z"/>
     <path id="368" class="fil3" d="M10121 -169c68,42 118,105 174,161 32,32 81,-17 49,-49 -60,-61 -115,-127 -188,-172 -38,-24 -73,36 -35,60l0 0z"/>
     <path id="369" class="fil3" d="M10342 -648c29,84 72,160 134,224 31,32 80,-17 49,-49 -54,-55 -91,-120 -116,-193 -15,-42 -82,-24 -67,18l0 0z"/>
     <path id="370" class="fil1" d="M20958 -3083c97,131 184,280 332,360 39,21 75,-39 35,-60 -137,-74 -217,-213 -307,-335 -26,-36 -87,-1 -60,35l0 0z"/>
     <path id="371" class="fil1" d="M19992 -2765c150,-79 319,-107 478,-163 42,-15 24,-82 -18,-67 -165,58 -338,88 -494,170 -40,21 -5,81 35,60l0 0z"/>
     <path id="372" class="fil1" d="M14867 -1427c1,-174 37,-351 135,-498 110,-166 299,-221 489,-186 136,25 203,136 198,271 -6,152 -127,214 -263,172 -43,-13 -61,54 -18,67 160,50 309,-16 345,-186 29,-139 -30,-315 -169,-370 -201,-80 -442,-26 -588,131 -147,158 -195,391 -197,600 0,45 69,45 69,0l0 0z"/>
     <path id="373" class="fil1" d="M14434 -1630c72,22 157,28 231,29 45,1 45,-69 0,-69 -69,-1 -147,-6 -213,-27 -43,-13 -61,54 -18,67l0 0z"/>
     <path id="374" class="fil1" d="M15410 -2571c19,46 -4,125 -24,168 -19,40 41,76 60,35 18,-38 28,-79 34,-121 4,-31 10,-70 -2,-100 -17,-41 -84,-23 -67,18l0 0z"/>
     <path id="375" class="fil1" d="M14573 -2060c53,13 111,23 158,52 38,24 73,-36 35,-60 -53,-33 -116,-44 -175,-59 -43,-11 -62,56 -18,67l0 0z"/>
     <path id="376" class="fil1" d="M14915 -2517c-14,-2 3,8 8,14 11,13 21,28 30,42 20,31 38,62 57,94 23,38 83,3 60,-35 -25,-42 -49,-84 -78,-124 -20,-28 -41,-55 -77,-60 -44,-6 -44,64 0,69l0 0z"/>
     <path id="377" class="fil1" d="M15801 -2277c43,-44 82,-95 117,-146 25,-37 -35,-72 -60,-35 -31,46 -66,92 -106,132 -31,32 18,81 49,49l0 0z"/>
     <path id="378" class="fil1" d="M15957 -1906c45,-1 88,-13 129,-33 40,-19 5,-79 -35,-60 -29,14 -61,22 -94,23 -45,1 -45,70 0,69l0 0z"/>
     <path id="379" class="fil1" d="M16576 -3325c-82,437 336,875 779,751 43,-12 25,-79 -18,-67 -389,109 -766,-279 -693,-666 8,-44 -59,-62 -67,-18l0 0z"/>
     <path id="380" class="fil1" d="M17290 -2239c329,-22 452,-365 308,-636 -21,-40 -81,-4 -60,35 118,222 28,513 -248,531 -44,3 -45,72 0,69l0 0z"/>
     <path id="381" class="fil1" d="M16027 -2851c34,1 63,23 87,45 32,31 81,-18 49,-49 -37,-36 -83,-64 -136,-66 -45,-2 -45,68 0,69l0 0z"/>
     <path id="382" class="fil1" d="M16354 -2140c65,337 -51,734 -434,791 -44,7 -25,73 18,67 423,-63 554,-505 483,-876 -8,-44 -75,-25 -67,18l0 0z"/>
     <path id="383" class="fil1" d="M15617 -1288c8,262 384,551 601,316 30,-33 -19,-82 -49,-49 -173,187 -476,-64 -482,-267 -1,-45 -71,-45 -69,0l0 0z"/>
     <path id="384" class="fil2" d="M14057 -2146c84,-151 190,-292 354,-359 41,-17 23,-84 -18,-67 -183,75 -302,222 -396,391 -22,39 38,74 60,35l0 0z"/>
     <path id="385" class="fil2" d="M16757 -2043c50,209 -69,484 -248,600 -37,24 -3,84 35,60 206,-133 338,-437 280,-678 -10,-44 -77,-25 -67,18l0 0z"/>
     <path id="386" class="fil2" d="M17031 -1935c48,16 98,28 148,29 45,1 45,-69 0,-69 -44,-1 -88,-13 -130,-27 -43,-14 -61,53 -18,67l0 0z"/>
     <path id="387" class="fil2" d="M17017 -1699c41,13 84,15 125,28 43,13 61,-54 18,-67 -41,-13 -84,-15 -125,-28 -43,-13 -61,54 -18,67l0 0z"/>
     <path id="388" class="fil2" d="M16957 -1476c44,2 84,31 109,66 26,36 86,2 60,-35 -39,-56 -99,-98 -169,-101 -45,-2 -45,68 0,69l0 0z"/>
     <path id="389" class="fil2" d="M16773 -1272c52,26 99,60 126,113 21,40 81,5 60,-35 -33,-62 -90,-106 -151,-137 -40,-20 -75,40 -35,60l0 0z"/>
     <path id="390" class="fil2" d="M15172 -1413c2,273 69,561 246,775 29,34 78,-15 49,-49 -165,-198 -224,-473 -226,-725 0,-45 -70,-45 -69,0l0 0z"/>
     <path id="391" class="fil2" d="M15471 -1114c45,0 45,-69 0,-69 -45,0 -45,69 0,69l0 0z"/>
     <path id="392" class="fil2" d="M15540 -892c45,0 45,-69 0,-69 -45,0 -45,69 0,69l0 0z"/>
     <path id="393" class="fil2" d="M15040 -1073c45,0 45,-69 0,-69 -45,0 -45,69 0,69l0 0z"/>
     <path id="394" class="fil2" d="M15096 -823c45,0 45,-69 0,-69 -45,0 -45,69 0,69l0 0z"/>
     <path id="395" class="fil2" d="M14152 -2628c45,0 45,-69 0,-69 -45,0 -45,69 0,69l0 0z"/>
     <path id="396" class="fil2" d="M13902 -2434c9,0 19,0 28,0 19,0 35,-16 35,-35 0,-19 -16,-35 -35,-35 -9,0 -19,0 -28,0 -19,0 -35,16 -35,35 0,19 16,35 35,35l0 0z"/>
     <path id="397" class="fil2" d="M16440 -2541c5,-5 9,-9 14,-14 13,-13 13,-36 0,-49 -13,-13 -36,-13 -49,0 -5,5 -9,9 -14,14 -13,13 -13,36 0,49 13,13 36,13 49,0l0 0z"/>
     <path id="398" class="fil2" d="M16749 -2392c45,0 45,-69 0,-69 -45,0 -45,69 0,69l0 0z"/>
     <path id="399" class="fil2" d="M15299 -1978c-13,65 -29,129 -42,194 -9,44 58,62 67,18 13,-65 29,-129 42,-194 9,-44 -58,-62 -67,-18l0 0z"/>
     <path id="400" class="fil2" d="M15909 -455c-2,-42 -9,-100 22,-133 22,-24 75,-9 101,-3 71,16 101,72 162,103 62,31 112,-24 145,-69 49,-67 61,-134 69,-214 4,-39 -1,-166 58,-167 68,-1 87,85 107,134 19,46 40,96 89,116 65,27 120,-68 145,-110 23,-39 -37,-73 -60,-35 -9,15 -43,83 -67,78 -18,-4 -33,-52 -40,-66 -22,-51 -37,-118 -83,-155 -41,-33 -115,-48 -157,-10 -48,42 -52,116 -58,175 -9,93 -16,163 -79,239 -28,34 -45,21 -72,-5 -26,-23 -51,-46 -82,-62 -52,-27 -141,-45 -197,-19 -76,35 -77,131 -73,203 2,45 72,45 69,0l0 0z"/>
     <path id="401" class="fil3" d="M14521 -1283c-58,209 34,471 189,617 33,31 82,-18 49,-49 -138,-130 -224,-363 -172,-550 12,-43 -55,-62 -67,-18l0 0z"/>
     <path id="402" class="fil3" d="M14256 -1344c-14,130 4,260 43,384 13,43 81,24 67,-18 -38,-119 -54,-242 -40,-366 5,-45 -65,-44 -69,0l0 0z"/>
     <path id="403" class="fil3" d="M17549 -2061c-26,177 -17,446 -206,535 -41,19 -5,79 35,60 212,-99 209,-378 238,-576 6,-44 -60,-63 -67,-18l0 0z"/>
     <path id="404" class="fil3" d="M17700 -2080c7,100 -9,200 -35,296 -26,93 -68,205 -156,257 -38,23 -4,83 35,60 185,-110 239,-417 226,-613 -3,-44 -73,-45 -69,0l0 0z"/>
     <path id="405" class="fil3" d="M18005 -2033c-43,-138 -15,-316 30,-451 8,-24 18,-50 36,-70 8,-9 15,6 24,22 49,83 39,161 30,252 -6,58 -3,137 63,160 71,25 133,-8 175,-64 90,-123 78,-336 61,-479 -5,-44 -75,-44 -69,0 9,76 10,153 5,229 -5,79 -16,203 -93,247 -104,60 -67,-133 -63,-173 8,-77 -16,-159 -59,-223 -84,-124 -165,38 -187,114 -40,138 -63,315 -19,455 13,43 80,24 67,-18l0 0z"/>
     <path id="406" class="fil3" d="M13715 -2103c-41,129 19,255 135,319 120,66 253,22 331,-83 27,-36 -34,-71 -60,-35 -131,178 -403,21 -339,-182 14,-43 -54,-61 -67,-18l0 0z"/>
     <path id="407" class="fil3" d="M13510 -2347c-112,199 -142,434 -35,641 103,199 321,297 537,300 45,1 45,-69 0,-69 -198,-3 -379,-90 -477,-266 -100,-180 -62,-399 35,-571 22,-39 -38,-74 -60,-35l0 0z"/>
     <path id="408" class="fil3" d="M15957 -1628c45,0 45,-69 0,-69 -45,0 -45,69 0,69l0 0z"/>
     <path id="409" class="fil3" d="M17160 -1103c-86,207 -92,565 214,558 45,-1 45,-71 0,-69 -255,6 -214,-310 -147,-470 17,-41 -50,-59 -67,-18l0 0z"/>
     <path id="410" class="fil3" d="M17455 -1306c-95,186 -73,376 89,514 34,29 83,-20 49,-49 -138,-118 -160,-271 -78,-430 20,-40 -40,-75 -60,-35l0 0z"/>
     <path id="411" class="fil1" d="M18021 -1867c-21,138 -122,251 -175,377 -40,98 -87,230 -36,333 38,77 125,45 176,4 74,-61 117,-162 157,-247 28,-59 183,-440 282,-359 73,60 0,194 -31,258 -42,90 -93,182 -156,259 -28,34 21,84 49,49 57,-70 103,-149 145,-229 45,-86 95,-188 92,-287 -3,-67 -60,-128 -127,-131 -72,-4 -129,74 -165,125 -110,156 -151,364 -284,503 -41,43 -81,46 -89,-20 -8,-74 21,-152 46,-220 50,-135 160,-249 182,-395 7,-44 -60,-63 -67,-18l0 0z"/>
     <path id="412" class="fil1" d="M13589 -3385c-13,200 113,389 96,592 -4,46 -35,77 -77,94 -45,19 -73,-24 -91,-59 -41,-78 -57,-177 -71,-264 -15,-86 -33,-214 -111,-267 -84,-58 -151,101 -170,152 -37,98 -13,223 7,322 22,110 56,227 116,323 24,38 84,3 60,-35 -58,-91 -87,-201 -109,-306 -27,-125 -35,-246 29,-361 41,-72 65,12 79,56 18,55 26,112 39,169 19,84 34,168 72,247 78,164 276,89 297,-70 26,-202 -109,-392 -96,-592 3,-45 -67,-44 -69,0l0 0z"/>
     <path id="413" class="fil1" d="M13186 -2094c14,241 43,480 85,718 8,44 75,25 67,-18 -40,-232 -69,-464 -82,-699 -3,-45 -72,-45 -69,0l0 0z"/>
     <path id="414" class="fil1" d="M13391 -1064c98,-53 213,-88 325,-90 58,-1 117,13 146,67 29,52 5,104 -42,131 -82,48 -185,48 -270,92 -60,31 -117,113 -117,183 0,147 263,108 347,98 162,-19 320,-69 482,-87 44,-5 44,-74 0,-69 -162,18 -320,67 -482,87 -78,10 -165,21 -242,0 -72,-20 -12,-99 20,-132 64,-67 195,-64 277,-101 89,-41 127,-121 96,-216 -74,-223 -437,-96 -574,-22 -39,21 -4,81 35,60l0 0z"/>
     <path id="415" class="fil2" d="M18466 -2824c60,-15 121,-27 181,-42 43,-11 25,-78 -18,-67 -60,15 -121,27 -181,42 -43,11 -25,78 18,67l0 0z"/>
     <path id="416" class="fil2" d="M17929 -878c264,13 668,-108 646,-438 -3,-44 -72,-45 -69,0 19,288 -351,379 -576,368 -45,-2 -45,67 0,69l0 0z"/>
     <path id="417" class="fil2" d="M17790 -587c240,-1 475,-36 670,-185 35,-27 1,-87 -35,-60 -187,142 -406,175 -635,176 -45,0 -45,70 0,69l0 0z"/>
     <path id="418" class="fil2" d="M18576 -2478c-24,125 -4,246 13,370 6,44 75,44 69,0 -15,-117 -38,-234 -15,-352 8,-44 -59,-62 -67,-18l0 0z"/>
     <path id="419" class="fil2" d="M12877 -2791c152,145 204,426 7,557 -37,25 -2,85 35,60 235,-155 193,-488 7,-666 -32,-31 -82,18 -49,49l0 0z"/>
     <path id="420" class="fil2" d="M12877 -1828c52,-26 104,-49 163,-51 45,-1 45,-71 0,-69 -72,2 -135,29 -198,60 -40,20 -5,80 35,60l0 0z"/>
     <path id="421" class="fil2" d="M12933 -1578c36,-23 78,-36 121,-37 45,-1 45,-70 0,-69 -55,1 -110,17 -156,46 -38,24 -3,84 35,60l0 0z"/>
     <path id="422" class="fil2" d="M12985 -1309c57,-1 109,-16 156,-46 37,-24 3,-84 -35,-60 -38,24 -76,36 -121,37 -45,1 -45,70 0,69l0 0z"/>
     <path id="423" class="fil1" d="M12765 -1164c13,117 7,235 22,352 12,97 33,259 141,299 115,43 168,-62 174,-159 7,-130 -42,-254 -45,-382 -1,-45 -71,-45 -69,0 2,96 31,191 41,286 5,48 9,267 -96,177 -72,-62 -76,-208 -84,-294 -8,-93 -4,-188 -14,-281 -5,-44 -74,-44 -69,0l0 0z"/>
     <path id="424" class="fil1" d="M14992 -674c97,131 184,280 332,360 39,21 75,-39 35,-60 -137,-74 -217,-213 -307,-335 -26,-36 -87,-1 -60,35l0 0z"/>
     <path id="425" class="fil1" d="M14026 -356c150,-79 319,-107 478,-163 42,-15 24,-82 -18,-67 -165,58 -338,88 -494,170 -40,21 -5,81 35,60l0 0z"/>
     <path id="426" class="fil3" d="M14748 -2675c84,-56 172,-106 269,-135 43,-13 25,-80 -18,-67 -103,31 -197,83 -286,142 -37,25 -2,85 35,60l0 0z"/>
     <path id="427" class="fil3" d="M16088 -2578c68,42 118,105 174,161 32,32 81,-17 49,-49 -60,-61 -115,-127 -188,-172 -38,-24 -73,36 -35,60l0 0z"/>
     <path id="428" class="fil3" d="M16308 -3057c29,84 72,160 134,224 31,32 80,-17 49,-49 -54,-55 -91,-120 -116,-193 -15,-42 -82,-24 -67,18l0 0z"/>
     <path id="429" class="fil3" d="M14319 -2099c14,-65 42,-118 88,-165 31,-32 -18,-81 -49,-49 -54,56 -90,120 -106,196 -9,44 58,62 67,18l0 0z"/>
    </g>
   </pattern>
 </defs>
 <g id="Layer_x0020_1">
  <metadata id="CorelCorpID_0Corel-Layer"/>
  <polygon class="fil0" points="0,13611 19444,13611 19444,0 0,0 "/>
  <polygon id="429" style="fill:url(#id0);fill-rule:nonzero" points="0,13611 19444,13611 19444,0 0,0 "/>
 </g>
</svg>
